<?xml version="1.0" standalone="no"?>
<!DOCTYPE svg PUBLIC "-//W3C//DTD SVG 20010904//EN"
 "http://www.w3.org/TR/2001/REC-SVG-20010904/DTD/svg10.dtd">
<svg version="1.0" xmlns="http://www.w3.org/2000/svg"
 width="960.000000pt" height="1280.000000pt" viewBox="0 0 960.000000 1280.000000"
 preserveAspectRatio="xMidYMid meet">

<g transform="translate(0.000000,1280.000000) scale(0.100000,-0.100000)"
fill="#000000" stroke="none">
<path d="M0 12420 c0 -306 3 -380 13 -380 7 0 29 -15 49 -33 l36 -33 -21 -17
c-12 -9 -34 -17 -49 -17 -28 0 -28 0 -28 -66 l0 -67 41 6 c42 5 67 -3 99 -34
15 -14 15 -21 5 -45 -6 -16 -19 -35 -28 -43 -26 -21 -20 -55 12 -82 36 -30 71
-87 71 -116 0 -13 13 -35 28 -50 37 -36 56 -85 49 -123 -12 -56 35 -109 96
-110 43 0 82 -68 78 -138 -1 -26 -54 -82 -76 -82 -15 0 -15 -3 -6 -106 1 -7
12 -15 26 -18 14 -4 25 -10 25 -15 0 -4 11 -20 25 -35 28 -30 33 -66 10 -66
-8 0 -15 -6 -15 -14 0 -19 -28 -28 -48 -15 -16 10 -15 10 1 5 21 -7 23 17 2
34 -8 7 -15 19 -15 26 0 8 -6 14 -14 14 -8 0 -17 8 -21 19 -6 20 -97 81 -121
81 -17 0 -29 -28 -38 -92 -5 -30 -3 -49 4 -53 8 -5 8 -11 -1 -21 -8 -10 -8
-14 0 -14 6 0 11 4 11 10 0 5 11 9 25 8 14 -1 25 -6 25 -11 0 -4 20 -5 44 -2
48 8 67 -5 41 -27 -20 -17 -31 -28 -54 -56 l-20 -23 -12 23 c-7 13 -13 26 -14
30 0 4 -9 14 -21 22 -15 11 -36 13 -78 9 -66 -7 -77 -25 -51 -86 15 -37 15
-39 -4 -44 -12 -3 -18 -9 -16 -14 7 -11 -37 -8 -52 4 -10 7 -13 -22 -13 -137
0 -132 2 -149 20 -168 11 -12 30 -43 42 -69 l23 -49 74 0 c65 0 76 -3 96 -25
22 -23 45 -100 45 -150 0 -13 5 -25 12 -27 6 -2 9 -12 5 -21 -7 -19 -60 -17
-115 5 -26 10 -35 10 -40 1 -10 -17 -112 79 -112 105 0 10 -5 23 -12 30 -7 7
-8 12 -4 12 5 0 3 7 -4 15 -24 29 -30 15 -30 -68 0 -82 0 -82 30 -95 38 -17
38 -32 0 -75 -17 -19 -30 -39 -30 -43 0 -5 14 -17 30 -26 17 -9 30 -24 30 -33
0 -8 4 -15 10 -15 5 0 12 -11 16 -24 4 -16 13 -23 30 -23 32 0 84 -26 114 -58
18 -19 33 -25 60 -23 20 1 47 -6 63 -16 15 -10 33 -16 42 -13 8 4 17 2 19 -2
8 -13 52 -1 75 21 15 13 28 17 42 13 12 -4 29 -8 38 -10 11 -1 16 -12 16 -39
0 -23 6 -42 17 -50 12 -9 15 -23 11 -61 -3 -28 -9 -54 -13 -60 -4 -5 -10 -25
-13 -43 -4 -18 -14 -41 -24 -50 -16 -16 -7 -17 138 -23 134 -6 181 -12 262
-35 14 -4 17 1 17 34 0 49 -24 72 -73 72 -35 0 -116 44 -117 63 0 5 4 6 9 2 5
-3 12 -1 16 5 3 5 19 10 34 10 43 0 54 21 47 85 -7 71 -13 94 -43 184 -34 99
-52 141 -61 141 -12 0 -72 106 -72 128 0 13 -12 24 -37 33 -37 14 -38 14 -65
-17 -16 -17 -28 -39 -28 -47 0 -9 -4 -18 -9 -22 -6 -3 -13 -25 -16 -49 -4 -24
-19 -67 -34 -97 -22 -45 -33 -56 -71 -71 -25 -9 -68 -17 -97 -17 -44 -1 -55 3
-72 25 -32 41 -34 61 -11 100 20 31 25 34 53 28 17 -3 39 -12 49 -18 14 -8 22
-8 36 2 9 7 25 15 34 18 16 6 25 26 44 109 7 30 11 37 58 88 14 15 26 33 26
38 0 14 26 39 39 39 14 0 14 17 1 25 -8 5 -7 11 1 21 9 11 8 14 -5 14 -9 0
-16 5 -16 11 0 5 5 7 10 4 39 -24 4 102 -41 147 -15 14 -32 42 -39 62 -20 61
13 174 52 176 12 0 70 -63 81 -89 6 -14 12 -44 13 -66 2 -22 6 -59 9 -82 4
-25 2 -57 -5 -79 -7 -20 -14 -57 -15 -80 -3 -36 0 -44 13 -44 23 -1 62 -34 62
-53 0 -11 14 -16 48 -20 39 -3 50 0 66 17 13 14 20 17 23 9 3 -7 11 -13 19
-13 7 0 26 -19 40 -42 14 -22 39 -52 55 -66 16 -13 26 -28 23 -33 -3 -6 -10
-6 -17 -1 -7 5 -26 10 -43 10 -28 1 -33 -4 -44 -38 -12 -36 -11 -41 21 -97 18
-32 46 -70 61 -85 30 -28 35 -58 18 -104 -8 -21 -7 -31 5 -44 8 -9 15 -20 15
-25 0 -4 11 -18 25 -31 14 -13 25 -30 25 -39 0 -8 10 -20 23 -25 34 -14 74
-52 82 -78 6 -22 -10 -58 -42 -90 -7 -8 -20 -26 -28 -42 -17 -33 -9 -43 71
-84 82 -41 144 -86 214 -156 68 -67 130 -151 130 -174 0 -8 7 -19 15 -26 8 -6
14 -15 13 -18 -1 -4 1 -14 5 -22 23 -63 25 -79 10 -92 -9 -7 -39 -20 -67 -29
-39 -13 -50 -21 -49 -35 5 -38 -5 -48 -30 -31 -23 15 -24 14 -41 -31 -12 -33
-29 -56 -58 -76 -27 -20 -43 -26 -46 -18 -5 16 -22 5 -22 -14 0 -8 -9 -25 -20
-36 -16 -17 -23 -19 -32 -10 -10 10 -8 14 10 18 12 4 22 10 22 15 0 12 -14 11
-27 -2 -16 -16 -88 18 -102 48 -7 15 -19 23 -36 23 -15 0 -25 6 -25 14 0 7 -7
19 -15 26 -8 7 -15 23 -15 35 0 12 -7 28 -15 35 -8 7 -15 20 -15 30 0 10 -6
23 -14 30 -8 6 -16 21 -18 32 -2 14 -15 25 -37 33 -19 6 -37 18 -39 26 -2 8
-27 35 -54 61 -42 40 -48 49 -39 66 13 25 -1 39 -44 44 -20 2 -33 11 -40 26
-5 12 -16 22 -23 22 -9 0 -10 5 -3 18 6 12 7 22 1 28 -6 6 -11 37 -12 69 -3
51 -6 60 -22 60 -25 0 -31 18 -11 35 20 17 19 30 -2 30 -15 0 -16 2 -3 10 13
9 13 10 0 10 -13 0 -13 1 0 11 11 8 -10 9 -77 5 -108 -7 -127 -2 -112 25 7 15
6 19 -6 19 -8 0 -15 7 -15 16 0 20 -69 83 -92 84 -20 0 -125 56 -152 82 -11
10 -23 18 -26 18 -13 0 -67 88 -73 119 -9 44 -24 61 -53 61 l-24 0 1 -1182 c0
-858 3 -1177 11 -1160 15 30 31 28 25 -4 -4 -22 0 -28 24 -37 19 -8 33 -22 40
-44 6 -18 15 -33 20 -33 6 0 22 -14 36 -30 13 -16 34 -30 45 -30 19 0 19 1 -3
20 l-24 19 30 -1 c17 -1 35 -5 40 -9 6 -5 24 3 40 16 15 14 23 25 17 25 -7 0
-12 5 -12 10 0 13 25 7 150 -30 145 -45 217 -53 380 -48 127 5 156 9 237 36
177 60 288 127 424 259 l77 74 53 -25 c29 -14 59 -26 66 -26 19 0 431 -257
517 -323 27 -20 52 -37 57 -37 8 0 277 -166 293 -180 5 -5 11 -27 13 -50 5
-44 -21 -110 -43 -110 -6 0 -17 -6 -24 -14 -6 -8 -17 -13 -24 -10 -7 3 -19 -2
-26 -11 -11 -14 -14 -12 -26 11 -8 14 -14 34 -14 43 0 14 -2 14 -10 1 -9 -13
-14 -7 -11 13 0 4 -3 7 -7 7 -4 0 -16 14 -25 30 -19 32 -47 40 -47 14 0 -9 8
-23 17 -31 17 -13 16 -14 -4 -8 -19 5 -23 2 -23 -19 0 -31 -16 -42 -37 -24
-11 8 -14 9 -10 1 5 -7 -1 -16 -13 -23 -11 -6 -20 -15 -20 -21 0 -18 -54 -58
-79 -59 -35 0 -58 -33 -66 -95 l-6 -55 -27 17 c-61 38 -71 57 -92 162 -23 115
-33 144 -59 177 -22 28 -33 21 -20 -13 12 -32 12 -33 -4 -27 -11 4 -11 -11 1
-87 12 -71 13 -98 4 -123 -7 -18 -12 -42 -12 -54 0 -12 -4 -22 -9 -22 -5 0
-22 -20 -38 -45 -15 -24 -31 -44 -35 -45 -3 0 -12 33 -18 73 -17 102 -29 116
-30 34 0 -62 -3 -71 -29 -98 -16 -16 -39 -29 -50 -29 -17 0 -21 -6 -21 -33 0
-18 -6 -39 -12 -45 -17 -17 9 -34 37 -26 16 5 18 4 8 -7 -10 -10 -18 -10 -38
-1 -47 22 -65 16 -65 -22 0 -18 -7 -53 -17 -77 -10 -28 -19 -94 -23 -184 -7
-132 -32 -261 -53 -276 -4 -3 -7 -10 -6 -15 4 -25 -2 -45 -13 -38 -7 5 -9 0
-6 -14 4 -14 2 -19 -7 -16 -10 4 -11 14 -4 40 7 24 6 40 -3 56 -7 13 -13 39
-13 58 0 34 -2 36 -62 55 -66 21 -72 27 -48 51 23 24 18 39 -20 60 -41 22 -42
25 -15 49 27 24 11 40 -37 40 -32 0 -37 4 -45 30 -15 51 -1 145 28 186 50 73
14 96 -91 58 -100 -35 -121 -35 -139 -1 -10 19 -13 42 -9 65 12 79 -25 118
-52 54 -18 -44 -23 -47 -52 -36 -20 7 -28 6 -37 -7 -11 -14 -15 -13 -40 13
-20 21 -38 30 -62 31 -19 1 -72 20 -118 43 -75 37 -87 47 -111 91 -15 27 -34
52 -42 55 -9 4 -33 -12 -62 -41 -26 -25 -50 -46 -53 -46 -4 0 -19 -11 -34 -24
-73 -65 -59 -62 -148 -43 -44 9 -82 15 -84 13 -2 -2 4 -18 12 -35 9 -16 16
-33 16 -37 0 -7 -57 0 -82 11 -17 7 -18 -4 -18 -154 0 -89 3 -161 8 -161 4 0
25 11 47 25 24 15 56 25 80 25 22 0 69 7 105 16 45 11 88 14 139 9 41 -3 76
-7 78 -9 2 -1 -39 -15 -89 -30 -51 -15 -100 -30 -108 -33 -22 -9 -24 -9 -147
-40 l-113 -28 0 -112 0 -112 47 14 c27 7 71 17 98 21 28 3 77 17 110 29 104
39 259 85 287 85 15 0 47 -4 70 -9 24 -6 68 -15 98 -22 67 -14 118 -40 230
-113 50 -33 118 -67 165 -82 119 -40 184 -76 247 -140 32 -32 58 -61 58 -66 0
-18 29 -7 44 17 9 14 23 25 31 25 24 0 17 -29 -10 -42 -14 -6 -25 -16 -25 -21
0 -9 42 -59 135 -159 19 -20 53 -47 76 -59 24 -12 65 -44 92 -71 38 -38 52
-47 62 -38 11 9 14 5 17 -17 3 -25 8 -29 53 -35 28 -3 121 -7 207 -7 88 -1
159 -5 163 -11 3 -5 12 -7 19 -4 23 9 29 -15 11 -43 -17 -25 -18 -25 -29 -7
-9 16 -25 20 -90 22 -44 2 -87 7 -97 13 -31 16 -51 11 -44 -11 5 -15 0 -22
-18 -29 -13 -5 -59 -32 -102 -60 -77 -51 -95 -59 -95 -42 0 14 105 88 143 100
20 7 41 19 48 27 10 13 6 14 -27 13 -21 -1 -109 1 -194 5 l-155 7 -35 39 c-27
30 -44 39 -77 43 -52 6 -55 1 -54 -123 1 -72 -5 -118 -25 -190 -14 -52 -34
-131 -45 -174 -11 -43 -31 -101 -44 -128 -14 -27 -25 -52 -25 -54 0 -10 19 -2
40 16 13 11 30 21 39 21 9 1 46 3 84 5 37 2 77 8 88 15 20 10 95 8 280 -7 56
-5 66 -3 66 10 0 9 -9 16 -21 17 -12 0 -30 5 -41 10 -23 10 94 5 239 -11 104
-12 134 -16 231 -35 39 -8 107 -17 153 -20 46 -3 93 -9 105 -14 12 -4 83 -7
157 -7 112 1 135 4 136 16 1 8 2 22 3 30 1 13 2 13 12 0 8 -12 12 -12 16 -2 4
10 9 9 24 -4 11 -10 30 -19 42 -22 53 -9 577 0 727 13 270 23 437 29 424 15
-7 -6 -43 -14 -80 -16 -38 -3 -83 -9 -99 -15 -17 -5 -148 -11 -292 -14 -144
-2 -311 -9 -370 -15 -59 -6 -173 -12 -253 -14 -80 -3 -169 -8 -199 -12 -30 -4
-97 -2 -150 5 -223 26 -458 42 -740 48 -324 6 -419 -1 -496 -41 -32 -17 -60
-21 -145 -22 -58 0 -114 -4 -126 -8 -26 -8 -185 29 -195 46 -16 24 -20 93 -10
138 8 39 29 293 28 355 0 11 4 82 8 158 5 96 4 137 -4 137 -6 0 -11 7 -11 16
0 37 -31 -11 -51 -80 -12 -39 -29 -87 -39 -106 -23 -47 -36 -78 -52 -123 -7
-22 -21 -43 -30 -48 -10 -5 -18 -16 -18 -24 0 -17 -26 -20 -35 -5 -9 14 -21
12 -39 -5 -11 -12 -20 -13 -34 -6 -23 12 -81 -6 -116 -36 -13 -12 -27 -36 -31
-54 -7 -31 -8 -32 -21 -14 -17 23 -18 67 -3 82 9 9 9 19 1 40 -6 15 -14 48
-18 73 -3 25 -15 57 -25 72 -11 14 -19 35 -19 45 0 11 -7 28 -15 39 -15 19
-15 19 -30 -1 -9 -11 -13 -30 -10 -45 39 -184 29 -545 -16 -545 -8 0 -14 7
-14 15 0 8 -9 16 -20 18 -37 7 -58 40 -52 82 5 36 3 39 -22 42 -17 2 -26 9
-26 20 0 21 -26 48 -49 52 -10 1 -21 9 -26 16 -10 17 -47 23 -55 10 -8 -13
-52 -13 -60 1 -4 5 -8 27 -10 47 -1 20 -5 44 -8 52 -3 8 -11 33 -17 55 -26
101 -29 63 -29 -360 l0 -430 67 -1 c97 -1 122 -9 122 -39 0 -16 6 -25 15 -25
9 0 20 -11 25 -25 11 -29 26 -31 59 -9 20 15 22 22 16 61 -6 40 -4 44 12 41
10 -2 18 -11 18 -21 0 -25 34 -44 46 -26 5 8 9 20 9 27 0 17 25 15 40 -3 7 -9
21 -13 31 -10 12 4 21 1 25 -9 4 -9 18 -16 35 -16 17 0 32 -7 38 -19 9 -15 7
-18 -7 -17 -9 0 -22 8 -29 16 -11 13 -12 12 -13 -8 0 -25 11 -32 61 -35 27 -2
34 2 33 16 -1 10 9 30 22 44 24 26 29 27 149 29 l124 2 24 -32 c29 -38 41 -72
28 -80 -6 -4 -8 -13 -4 -22 8 -20 -26 -44 -52 -35 -30 10 -88 7 -91 -4 -2 -5
0 -16 5 -24 8 -13 12 -13 26 -1 13 11 18 11 24 1 4 -6 14 -11 21 -9 8 2 18
-10 24 -27 6 -16 15 -33 20 -36 5 -4 6 -11 2 -17 -3 -6 -1 -14 4 -17 6 -4 11
-19 10 -33 -4 -53 0 -73 16 -79 20 -8 35 16 24 38 -12 22 -2 31 22 18 15 -8
18 -17 13 -40 -5 -23 -3 -29 11 -29 10 0 27 -9 39 -20 24 -23 53 -26 108 -12
48 13 66 28 60 50 -2 10 7 29 21 44 32 36 25 68 -15 68 -20 0 -29 5 -29 16 0
12 -5 14 -17 9 -53 -23 -78 -18 -128 28 -42 39 -47 48 -36 61 8 9 21 16 31 16
10 0 23 7 30 15 7 8 19 15 27 15 19 0 52 -40 53 -62 0 -11 8 -18 21 -18 14 0
25 -11 36 -37 15 -36 16 -37 24 -15 5 12 13 22 19 22 5 0 10 11 10 25 0 14 5
25 10 25 6 0 10 7 10 15 0 8 -4 15 -10 15 -5 0 -10 5 -10 11 0 16 -24 36 -38
31 -7 -2 -20 -1 -30 3 -9 3 -19 6 -21 5 -11 -4 -18 26 -10 42 5 10 14 27 19
38 5 11 10 27 10 36 0 11 6 14 22 8 13 -3 24 -10 26 -14 1 -4 9 -16 17 -26 12
-17 17 -17 35 -6 19 12 25 11 46 -9 13 -12 26 -29 29 -38 2 -9 14 -22 25 -29
30 -18 60 1 60 38 0 25 4 30 25 30 18 0 28 -7 35 -24 5 -13 23 -40 39 -59 29
-32 34 -67 11 -67 -13 0 -6 -26 15 -54 11 -15 26 -24 32 -21 7 2 13 -1 13 -7
0 -6 3 -9 6 -5 3 3 12 0 19 -6 10 -10 9 -17 -6 -39 -25 -34 -24 -48 4 -49 43
-2 60 3 77 23 l17 21 16 -24 c18 -25 23 -59 8 -59 -5 0 -11 -10 -14 -23 -11
-46 -52 -152 -62 -159 -5 -4 -7 -8 -3 -8 4 0 1 -19 -7 -41 -8 -23 -24 -96 -36
-163 -25 -146 -22 -258 11 -334 21 -48 21 -51 4 -83 -9 -19 -37 -58 -61 -88
-58 -71 -158 -276 -184 -376 -26 -100 -31 -299 -10 -393 12 -52 12 -65 1 -72
-8 -5 -10 -17 -6 -34 3 -14 8 -36 11 -48 5 -17 -6 -36 -41 -76 -50 -57 -63
-62 -39 -16 18 36 19 44 2 44 -8 0 -19 18 -26 40 -10 33 -16 40 -37 40 -67 0
-158 -76 -201 -169 -21 -45 -25 -63 -21 -115 6 -74 42 -150 95 -201 l37 -36
-23 -87 c-45 -165 -46 -175 -27 -212 16 -33 16 -34 -8 -59 -34 -36 -66 -109
-66 -153 0 -32 8 -45 63 -98 34 -34 67 -65 73 -68 6 -4 31 -24 55 -44 47 -39
131 -88 153 -88 7 0 21 -9 31 -20 14 -16 16 -23 7 -32 -7 -7 -12 -24 -12 -39
0 -15 -4 -30 -9 -33 -5 -4 -12 -24 -16 -45 -3 -22 -16 -47 -27 -58 -63 -57
-98 -216 -62 -285 12 -23 15 -48 11 -97 -3 -36 -4 -57 -1 -46 3 11 9 38 14 60
5 22 19 92 31 155 12 63 32 149 45 190 20 63 27 76 46 77 12 1 28 -3 36 -10 8
-6 26 -13 40 -15 14 -2 31 -10 37 -18 6 -9 15 -14 20 -13 21 5 62 -20 97 -60
20 -22 43 -41 52 -41 8 0 29 -21 47 -46 21 -32 34 -42 39 -34 9 15 30 -17 30
-45 0 -11 5 -15 15 -11 8 3 22 -3 31 -12 10 -9 22 -17 28 -17 6 0 13 -18 16
-39 5 -37 31 -62 52 -49 4 2 10 -8 14 -22 3 -14 10 -25 15 -25 5 0 9 -9 9 -20
0 -20 5 -20 393 -20 324 1 398 3 421 15 25 13 27 13 22 0 -5 -13 124 -15 1062
-15 l1067 0 0 102 c0 310 92 555 276 737 105 103 213 167 359 213 72 22 75 25
72 52 -2 16 -10 35 -18 43 -8 8 -14 22 -14 31 0 10 -6 27 -14 38 -8 12 -16 32
-18 45 -2 13 -9 33 -15 44 -8 16 -35 110 -38 135 0 3 -3 10 -6 15 -4 6 -10 25
-14 42 -3 18 -12 36 -19 40 -13 9 -49 63 -41 63 2 0 -15 18 -39 40 -24 22 -47
40 -52 40 -5 0 -20 16 -34 36 -13 20 -42 47 -63 61 -21 13 -41 33 -45 44 -7
18 -33 39 -139 112 -18 12 -33 28 -33 35 0 6 -11 12 -25 12 -13 0 -28 6 -32
13 -8 11 -47 37 -58 37 -3 0 -5 -8 -6 -17 0 -12 -2 -13 -6 -5 -3 7 -16 17 -29
22 -20 8 -29 25 -26 51 1 3 -9 4 -21 2 -29 -5 -117 51 -117 75 0 23 -83 102
-108 102 -11 0 -22 9 -25 19 -7 27 -65 61 -105 61 -30 0 -33 2 -27 23 4 12 20
34 36 49 27 26 38 48 22 48 -4 0 -45 -12 -92 -26 -70 -21 -88 -24 -107 -13
-13 6 -38 9 -58 6 -33 -5 -36 -3 -46 28 -12 37 -17 36 -85 -10 -17 -12 -42
-27 -57 -35 -16 -7 -28 -17 -28 -22 0 -4 -6 -8 -14 -8 -8 0 -16 -3 -18 -7 -8
-20 -70 -54 -81 -45 -14 11 -50 1 -45 -12 2 -5 -8 -11 -21 -13 -12 -2 -35 -12
-50 -24 -14 -11 -59 -41 -99 -66 -39 -24 -95 -68 -122 -96 -50 -51 -65 -54
-33 -7 38 57 149 174 218 229 129 103 250 156 635 274 63 20 174 50 245 67 72
18 144 40 160 50 17 10 64 30 105 45 41 14 84 32 96 40 30 19 94 30 94 16 0
-6 7 -11 15 -11 18 0 20 -16 3 -23 -7 -3 -3 -6 10 -6 15 -1 21 3 16 11 -5 8
-2 9 11 5 9 -4 23 -3 29 2 13 11 107 -16 127 -36 23 -23 -43 -43 -138 -43
-126 0 -325 -42 -344 -72 -5 -7 -30 -17 -56 -23 -26 -5 -45 -14 -43 -20 7 -18
74 -36 115 -31 58 7 368 20 450 19 39 -1 103 -2 142 -2 40 -1 82 3 94 9 11 7
28 8 37 4 9 -4 24 -6 33 -5 12 1 22 -13 34 -46 38 -102 54 -130 107 -183 30
-31 73 -80 95 -110 66 -88 139 -149 208 -173 l37 -13 -59 -41 c-32 -23 -84
-68 -116 -100 -47 -49 -58 -65 -59 -96 -1 -38 15 -67 38 -67 14 0 124 -147
124 -167 0 -14 -6 -16 -65 -14 -30 1 -36 -1 -25 -8 10 -7 11 -11 3 -11 -17 0
-16 -30 1 -53 15 -19 122 -76 144 -77 6 0 12 -4 12 -10 0 -5 9 -10 21 -10 11
0 35 -11 54 -25 48 -37 114 -42 205 -16 41 11 77 17 81 13 5 -6 39 -132 39
-147 0 -10 -32 -5 -66 11 -27 13 -37 14 -49 4 -14 -12 -14 -16 0 -190 8 -97 2
-310 -8 -327 -4 -7 0 -16 10 -21 14 -9 15 -13 4 -26 -19 -23 -40 -20 -50 7 -5
13 -20 31 -34 40 l-25 16 15 -30 c8 -16 19 -26 25 -23 7 4 8 2 4 -4 -4 -7 -2
-17 3 -24 48 -59 61 -78 61 -92 0 -9 5 -16 10 -16 6 0 10 -11 10 -23 0 -30 25
-52 67 -60 18 -4 99 0 180 9 82 8 182 14 223 14 41 -1 98 3 125 9 56 11 178
14 212 5 12 -3 23 -15 25 -28 2 -15 11 -22 31 -24 15 -2 27 -8 27 -13 0 -6 5
-7 10 -4 6 4 8 11 5 16 -4 5 -1 9 4 9 6 0 11 -9 11 -20 0 -11 7 -23 15 -26 8
-4 15 -10 15 -15 0 -4 -7 -6 -15 -3 -8 4 -15 1 -15 -6 0 -9 -3 -10 -14 -1 -11
9 -15 4 -20 -28 l-6 -39 -42 5 c-40 6 -41 5 -34 -18 14 -45 11 -51 -34 -69
-41 -16 -48 -16 -83 -3 -46 19 -102 10 -117 -17 -6 -11 -21 -20 -34 -20 -13 0
-37 -7 -54 -15 -29 -15 -66 -18 -213 -17 -50 1 -68 5 -72 17 -8 18 -27 19 -51
2 -12 -9 -23 -39 -31 -83 -7 -38 -16 -84 -20 -101 l-8 -33 1433 0 1432 0 -6
27 c-4 16 -7 35 -7 43 2 55 13 272 26 520 3 52 37 197 54 228 6 12 16 58 21
104 16 138 27 190 54 257 l26 65 0 758 c0 417 -3 758 -6 758 -26 0 -359 -276
-462 -383 -59 -62 -74 -87 -52 -87 12 0 3 -43 -17 -84 -12 -22 -17 -26 -24
-15 -5 8 -9 24 -9 37 0 12 -4 22 -10 22 -5 0 -41 -39 -81 -87 -93 -113 -150
-173 -160 -168 -4 3 -7 29 -7 57 -1 62 -52 174 -113 249 -25 31 -49 77 -68
135 -28 84 -75 178 -119 234 -28 36 -62 106 -62 127 0 10 -9 33 -20 51 -21 34
-28 116 -10 127 5 3 10 19 10 35 0 18 12 42 33 65 17 20 32 41 32 47 0 6 9 16
19 22 11 6 28 19 38 29 10 9 23 17 30 17 6 0 8 3 5 7 -14 13 25 43 48 37 14
-3 24 0 28 9 3 8 21 17 40 21 19 4 38 14 41 23 4 9 9 13 13 9 10 -10 43 25 43
46 0 10 7 18 15 18 8 0 15 5 15 10 0 6 6 10 13 10 16 0 39 64 40 115 2 36 5
40 29 43 27 3 82 62 58 62 -8 0 -7 9 4 26 10 14 18 40 20 57 2 18 6 40 11 51
5 11 3 21 -4 25 -6 4 -15 38 -20 76 -5 42 -14 72 -23 79 -9 7 -18 23 -20 36
-1 14 -8 25 -15 25 -19 0 -28 15 -15 24 7 4 15 23 18 42 4 28 0 40 -25 67 -17
18 -31 37 -31 42 0 5 -6 15 -14 23 -8 8 -17 29 -19 48 -3 19 -6 34 -7 34 -2 0
-4 18 -5 40 -2 31 -12 134 -18 175 0 3 3 18 8 34 7 26 4 32 -26 57 -25 21 -31
31 -23 39 9 9 7 22 -7 51 -18 37 -22 39 -64 39 -34 0 -45 4 -45 15 0 18 8 21
74 30 47 6 48 7 42 35 -3 16 -1 32 4 35 6 3 10 15 10 26 0 17 -5 29 -31 79 -4
8 -17 33 -29 55 -41 80 -71 106 -135 118 -74 15 -135 11 -135 -8 0 -8 -10 -21
-21 -29 -15 -10 -20 -21 -16 -35 3 -13 -1 -24 -10 -29 -14 -8 -26 -73 -25
-132 1 -14 -3 -36 -7 -50 -5 -14 -14 -44 -21 -68 -7 -23 -19 -42 -26 -42 -22
0 -36 -37 -24 -61 13 -23 5 -68 -31 -166 -18 -52 -26 -63 -45 -63 -12 0 -24 6
-26 12 -3 8 -9 4 -17 -10 -10 -18 -9 -23 4 -28 31 -12 11 -91 -35 -131 -14
-12 -37 -23 -52 -23 -18 0 -31 -8 -39 -22 l-12 -22 -17 22 c-21 25 -50 29 -50
7 0 -32 -72 1 -92 42 -18 38 -48 43 -48 8 0 -14 5 -36 11 -47 6 -11 12 -78 14
-147 1 -69 6 -139 10 -155 l8 -30 -31 22 c-16 12 -35 22 -41 22 -19 0 -29 32
-19 67 5 18 6 38 3 43 -3 5 -13 50 -21 100 -14 90 -39 152 -89 226 -14 20 -25
45 -25 55 0 12 -7 19 -19 19 -20 0 -71 66 -71 92 0 9 5 20 10 23 16 10 12 45
-5 45 -8 0 -15 -5 -15 -10 0 -10 -31 20 -68 64 -19 24 -26 20 -42 -26 -20 -55
-37 -59 -56 -12 -38 91 22 622 123 1089 110 509 333 1175 417 1248 12 11 56
49 99 85 43 38 71 68 64 70 -29 6 -146 -61 -218 -124 -41 -37 -84 -70 -96 -75
-13 -5 -23 -16 -23 -24 0 -13 -4 -12 -22 5 -12 11 -27 20 -33 20 -6 0 -22 17
-35 39 -23 36 -67 65 -100 66 -8 0 -22 15 -29 33 -13 29 -18 32 -45 26 -34 -7
-32 -4 32 45 48 38 52 48 17 53 -23 3 -21 6 30 46 54 41 74 67 61 79 -3 3 -36
-25 -73 -64 -38 -38 -87 -82 -110 -98 -24 -15 -43 -31 -43 -34 0 -4 -12 -8
-26 -9 -15 -1 -33 -7 -40 -13 -16 -13 -84 -3 -84 11 0 5 -15 16 -32 24 -37 15
-78 51 -78 67 0 14 -26 39 -40 39 -6 0 -1 20 13 48 43 82 40 89 -14 34 -53
-54 -67 -60 -87 -40 -7 7 -12 9 -12 5 0 -4 -6 -2 -14 5 -8 7 -12 16 -9 21 2 4
0 7 -6 7 -5 0 -11 17 -13 38 -2 20 -4 -72 -3 -205 0 -177 -3 -245 -12 -254
-10 -10 -14 -7 -22 13 -11 30 -30 45 -32 26 -1 -7 -2 -17 -4 -23 -1 -5 -3 -14
-4 -20 -1 -5 -6 0 -11 13 -11 25 -30 30 -30 6 0 -22 -22 -42 -51 -46 -17 -2
-27 -12 -34 -35 -5 -18 -14 -33 -20 -33 -13 0 -35 42 -35 65 0 8 -5 17 -11 21
-7 4 -10 -8 -9 -37 1 -24 1 -48 -1 -54 -1 -5 -3 -16 -3 -22 -1 -7 -6 -12 -11
-10 -5 1 -8 9 -7 16 3 13 1 13 -12 2 -9 -7 -22 -11 -30 -8 -8 3 -22 -1 -33 -8
-10 -8 -27 -12 -39 -9 -27 7 -44 -15 -34 -42 8 -21 10 -21 67 -7 136 34 153
37 153 23 0 -5 -12 -13 -27 -16 -16 -4 -32 -9 -36 -11 -9 -5 69 -57 102 -68
11 -3 26 -15 32 -26 5 -11 15 -16 21 -13 7 4 8 2 4 -5 -5 -7 -20 -9 -42 -5
-30 6 -34 4 -28 -12 4 -15 4 -16 -4 -5 -6 8 -17 11 -25 8 -8 -3 -20 0 -26 6
-8 8 -11 6 -11 -6 0 -10 18 -37 40 -59 57 -60 50 -78 -16 -38 -22 14 -35 17
-39 9 -4 -6 -2 -16 4 -22 6 -6 11 -17 11 -24 0 -19 -41 -16 -55 3 -9 13 -19
15 -41 9 -16 -4 -23 -10 -16 -12 6 -3 12 -11 12 -19 0 -8 7 -14 15 -14 19 0
19 -14 0 -30 -9 -7 -14 -18 -12 -25 3 -6 -4 -12 -14 -12 -11 -1 -17 2 -14 7 3
4 -4 6 -15 3 -10 -3 -22 -13 -25 -23 -3 -10 -19 -21 -35 -25 -33 -7 -72 10
-117 52 -31 29 -103 59 -103 43 0 -12 48 -60 60 -60 5 0 25 -16 44 -35 20 -19
41 -35 48 -35 9 0 8 -3 -2 -10 -12 -8 -13 -13 -2 -30 11 -19 10 -20 -21 -20
-18 0 -60 14 -92 30 -32 17 -65 30 -72 30 -12 0 -14 -4 -17 -37 -2 -23 -47
-65 -63 -59 -9 4 -22 1 -29 -5 -9 -7 -30 -9 -54 -5 -25 4 -40 2 -40 -4 0 -13
-37 -13 -45 0 -9 15 -35 12 -35 -3 0 -24 -31 -77 -45 -77 -7 0 -21 7 -29 16
-9 8 -16 11 -16 5 0 -6 -4 -11 -10 -11 -5 0 -10 10 -10 23 0 12 -7 34 -14 50
-9 15 -10 27 -5 27 6 0 7 5 4 10 -5 8 -11 7 -21 -1 -8 -6 -14 -8 -14 -3 0 5
-16 10 -35 11 -19 1 -41 7 -50 15 -46 40 -75 69 -75 76 0 10 -56 43 -67 40
-19 -5 -52 14 -47 27 3 8 12 11 19 9 10 -4 12 1 8 16 -4 17 -11 21 -30 17 -19
-3 -31 5 -58 38 -45 54 -87 132 -91 170 -4 32 -49 105 -64 105 -17 0 -11 17 8
23 11 2 21 14 25 26 4 17 0 22 -21 27 -52 13 -58 29 -37 108 6 22 5 27 -6 24
-8 -3 -13 -11 -11 -17 4 -18 -18 -52 -29 -46 -5 4 -9 15 -9 26 0 10 -9 24 -20
31 -16 10 -20 24 -20 65 0 39 -5 58 -24 80 -22 26 -28 45 -43 130 -3 22 4 57
21 106 28 78 32 112 16 122 -5 3 -10 -1 -10 -9 0 -9 -4 -16 -10 -16 -5 0 -10
-9 -10 -19 0 -11 -12 -33 -26 -48 l-27 -28 7 37 c11 59 -4 170 -23 175 -20 5
-51 57 -51 85 0 13 -5 18 -14 15 -12 -5 -13 -1 -4 24 6 18 25 38 47 50 26 14
29 18 11 13 -14 -3 -38 -20 -54 -37 -17 -16 -32 -25 -34 -19 -5 16 70 81 96
82 33 0 37 -1 34 -11 -1 -6 5 -6 17 0 10 6 21 8 24 4 4 -3 13 0 22 7 10 8 15
9 15 1 0 -18 17 -13 42 12 28 28 88 70 88 63 0 -3 27 22 59 56 l59 62 -9 -44
c-14 -75 -12 -102 9 -98 11 2 16 12 15 28 -3 50 6 52 45 11 48 -51 70 -53 37
-5 -14 20 -25 43 -25 51 0 16 40 115 50 123 13 10 80 152 80 169 0 9 5 22 11
28 6 6 8 17 3 24 -10 16 -13 51 -7 62 3 4 16 1 29 -7 33 -22 36 -20 32 16 -2
20 -11 36 -23 43 -17 9 -20 18 -17 67 l3 57 52 -6 c29 -3 86 -14 129 -24 42
-10 93 -19 113 -19 41 0 81 -18 109 -49 30 -33 73 -35 156 -7 103 34 315 67
431 67 120 0 183 -15 204 -48 10 -15 22 -22 32 -19 24 10 91 -26 211 -112 61
-45 112 -77 112 -71 0 7 6 6 17 -2 15 -12 16 -12 9 6 -6 16 -5 17 5 8 9 -10
19 -7 41 12 40 34 76 33 89 -2 9 -24 7 -30 -10 -42 -12 -7 -21 -20 -21 -28 0
-8 -3 -12 -8 -9 -4 2 -16 -3 -27 -11 -16 -13 -17 -15 -2 -10 9 4 17 2 17 -2 0
-5 24 -24 53 -42 28 -17 79 -53 111 -78 33 -25 72 -53 86 -61 15 -8 53 -33 85
-55 101 -70 109 -75 147 -85 41 -12 107 -48 250 -139 53 -33 134 -81 180 -104
46 -24 105 -58 132 -75 28 -18 55 -32 61 -32 6 0 26 -11 45 -24 19 -13 46 -27
60 -31 14 -4 65 -27 114 -52 99 -50 100 -50 316 -22 41 5 213 12 383 15 l307
6 -2 621 -3 622 -39 -3 c-53 -4 -83 14 -107 62 -21 44 -24 66 -9 66 6 0 10 6
10 13 0 12 83 59 127 72 l23 6 0 981 c0 937 -1 981 -19 1007 -30 43 -32 77 -5
102 22 21 24 30 24 126 0 57 -4 103 -8 103 -5 0 -22 -16 -40 -36 -25 -28 -35
-33 -49 -26 -36 19 -119 23 -149 7 -16 -8 -39 -15 -51 -15 -13 0 -23 -4 -23
-9 0 -15 -43 -18 -65 -4 -20 12 -42 9 -160 -17 -21 -4 -46 -5 -55 -1 -8 5 -44
7 -80 6 -74 -3 -122 14 -157 56 -18 21 -32 27 -65 27 -23 1 -50 -4 -60 -9 -22
-12 -24 -34 -3 -25 15 5 15 -13 -1 -61 -2 -7 1 -13 6 -13 22 0 8 -26 -20 -39
-25 -10 -37 -11 -60 -1 -16 7 -34 9 -39 5 -6 -3 -14 2 -18 12 -9 25 -43 73
-52 73 -4 0 -17 -9 -30 -21 -17 -16 -21 -30 -19 -62 3 -35 0 -42 -14 -39 -12
2 -18 -4 -18 -17 0 -25 -40 -55 -54 -41 -14 14 -29 13 -20 -2 5 -8 2 -9 -10
-5 -69 27 -112 -134 -52 -190 14 -13 28 -34 32 -47 3 -14 19 -34 35 -47 21
-16 29 -30 29 -54 0 -17 3 -35 7 -39 4 -3 8 -14 9 -22 1 -9 5 -21 7 -29 6 -13
61 -45 81 -45 6 -1 20 -9 32 -18 25 -21 40 -107 23 -128 -13 -16 -65 -19 -74
-4 -9 15 -85 13 -85 -3 0 -20 -48 -19 -69 2 -15 15 -16 21 -6 32 18 20 26 86
12 97 -23 18 -67 22 -113 11 -45 -12 -46 -11 -80 24 l-35 36 25 38 c24 34 29
37 70 34 53 -3 86 12 86 40 0 16 -6 19 -37 18 -21 -1 -46 -6 -56 -11 -21 -11
-67 34 -67 66 0 11 -10 51 -21 88 l-21 67 28 45 c18 29 38 48 54 51 31 7 82
69 86 104 7 64 23 116 41 129 12 9 32 12 66 7 29 -3 47 -2 47 5 0 5 19 23 42
40 40 29 44 30 131 26 l90 -4 35 39 c20 21 43 39 53 39 10 0 21 5 25 11 4 7
29 10 67 7 59 -4 70 -11 96 -57 5 -8 39 -17 87 -23 43 -5 99 -12 123 -15 24
-3 53 0 65 6 11 6 49 15 84 20 46 7 83 22 138 56 82 49 140 74 192 82 l32 5 0
278 c0 256 -1 279 -17 285 -38 12 -73 55 -85 102 -7 26 -15 50 -18 53 -3 3
-16 21 -28 41 -19 31 -20 38 -7 56 19 27 78 36 121 18 l34 -14 0 350 0 349
-1859 -2 c-1703 -3 -1860 -4 -1877 -19 -11 -9 -29 -20 -41 -23 -20 -6 -23 -4
-23 18 l0 26 -545 0 c-532 0 -545 0 -545 -19 0 -18 -5 -19 -53 -14 -46 5 -59
2 -95 -21 -23 -14 -46 -36 -53 -48 -6 -13 -20 -31 -30 -41 -26 -25 -24 -49 7
-78 14 -13 32 -36 40 -51 16 -30 19 -104 5 -113 -20 -12 -102 16 -177 61 l-79
47 -114 1 c-139 1 -151 -7 -103 -73 26 -35 29 -46 22 -72 -12 -40 -28 -59 -50
-59 -10 0 -28 -12 -39 -26 -25 -32 -58 -51 -125 -71 -27 -8 -59 -21 -70 -28
-12 -7 -46 -13 -77 -14 -63 -3 -77 7 -86 62 -5 32 -2 38 37 66 24 17 52 31 64
31 25 0 40 9 53 33 26 49 -20 112 -65 88 -14 -7 -23 -8 -27 -1 -4 6 -11 8 -16
4 -19 -11 -59 5 -53 21 7 17 -14 47 -27 40 -4 -3 -34 -6 -64 -6 -45 -1 -61 3
-76 19 -19 21 -18 21 15 57 27 28 40 35 61 31 36 -7 55 -24 55 -50 0 -16 2
-18 9 -7 7 11 12 10 22 -8 18 -27 23 -27 58 7 l30 28 -30 13 c-33 14 -37 26
-11 36 11 4 22 -1 31 -14 12 -18 24 -21 88 -21 54 0 85 -6 115 -20 23 -11 52
-20 64 -20 12 0 25 -6 27 -12 3 -7 6 -3 6 10 1 13 13 43 27 67 22 38 24 49 15
79 -18 66 -39 82 -108 85 -44 2 -69 -2 -87 -14 -26 -17 -86 -13 -86 6 0 5
-180 9 -444 9 l-444 0 -33 -41 c-29 -37 -33 -50 -40 -130 l-7 -88 -47 -46
c-40 -40 -46 -51 -40 -73 3 -15 9 -42 12 -59 3 -19 11 -33 19 -33 8 0 17 -7
20 -15 8 -20 29 -19 51 3 45 45 70 53 162 50 81 -3 87 -4 77 -20 -6 -10 -17
-18 -24 -18 -7 0 -18 -12 -25 -27 -6 -16 -22 -36 -35 -47 -23 -18 -28 -63 -7
-59 6 1 13 -4 18 -12 4 -7 20 -16 36 -20 39 -8 67 -60 52 -98 -6 -15 -22 -32
-37 -37 -41 -16 -121 -1 -147 26 -30 32 -55 31 -62 -3 -4 -16 -10 -35 -14 -43
-5 -9 -12 -30 -15 -47 -4 -17 -16 -39 -27 -49 -11 -10 -19 -30 -19 -51 0 -18
-4 -33 -9 -33 -5 0 -16 -16 -26 -36 -13 -29 -19 -33 -31 -23 -8 6 -14 19 -14
29 0 10 -7 20 -15 24 -8 3 -14 11 -13 18 2 8 -5 12 -15 10 -15 -3 -16 2 -11
25 4 15 10 37 14 48 10 25 -20 76 -73 127 -37 35 -38 39 -35 90 l3 53 -54 3
c-38 2 -58 -1 -71 -13 -10 -9 -35 -18 -56 -21 -46 -7 -94 -26 -94 -36 0 -5 -7
-8 -16 -8 -9 0 -18 -9 -21 -20 -3 -11 -13 -20 -23 -20 -10 0 -21 -6 -24 -12
-3 -7 -3 -3 0 9 4 17 2 21 -9 17 -24 -9 -31 15 -33 99 -1 74 -3 81 -35 117
-31 35 -39 39 -84 39 -67 1 -85 3 -85 10 -1 3 -12 19 -25 36 l-25 30 -27 -31
c-40 -44 -102 -172 -109 -224 -5 -41 -3 -50 27 -87 19 -24 45 -46 58 -49 13
-4 50 -24 81 -45 l57 -38 5 -82 c4 -74 8 -85 32 -106 24 -20 37 -23 115 -23
95 0 102 -4 144 -72 23 -37 21 -65 -8 -117 -26 -45 -32 -90 -15 -121 14 -27
95 -38 119 -16 10 9 22 16 28 16 6 0 13 6 16 14 3 8 24 17 45 21 71 12 139
-44 113 -92 -9 -17 -21 -21 -73 -21 -81 0 -116 -14 -124 -48 -9 -35 24 -64 73
-64 60 0 96 -28 87 -67 -11 -44 70 -83 175 -83 l38 0 1 -107 c1 -177 -1 -163
29 -163 33 0 100 -45 109 -72 9 -31 -32 -110 -68 -131 -26 -15 -29 -21 -23
-45 6 -27 70 -91 90 -92 25 0 83 -76 88 -115 8 -49 -1 -85 -19 -85 -21 0 -28
-27 -12 -44 7 -9 19 -22 26 -31 7 -8 25 -17 40 -21 15 -3 34 -8 42 -11 19 -7
91 -4 127 6 25 7 31 3 55 -29 27 -36 39 -94 24 -118 -16 -26 -266 -10 -266 17
0 11 -62 30 -90 28 -20 -2 -24 -7 -22 -26 3 -19 0 -23 -15 -19 -10 3 -31 -4
-48 -14 -16 -10 -38 -21 -48 -24 -42 -15 -22 -105 36 -168 13 -14 32 -50 41
-78 20 -63 25 -72 49 -81 9 -3 17 -15 17 -26 0 -10 7 -21 15 -25 8 -3 15 -14
15 -23 0 -10 8 -30 17 -43 15 -20 18 -49 19 -157 1 -72 5 -136 9 -142 11 -18
-17 -79 -42 -90 -13 -6 -23 -16 -23 -22 0 -17 32 -38 57 -39 32 0 90 -32 103
-55 6 -11 32 -35 58 -53 26 -17 58 -50 72 -72 14 -22 27 -40 31 -40 18 0 69
-174 69 -238 0 -12 1 -22 3 -22 1 0 41 13 87 29 106 37 154 47 146 29 -3 -7
-9 -21 -12 -31 -5 -13 -14 -17 -31 -14 -23 4 -23 4 -7 -21 9 -14 19 -41 21
-60 3 -19 13 -50 23 -67 14 -25 16 -36 7 -45 -9 -10 -9 -11 1 -6 6 4 12 3 12
-2 0 -4 25 -19 55 -31 38 -16 69 -39 100 -74 48 -55 61 -71 202 -257 48 -63
92 -118 98 -122 5 -4 7 -8 3 -8 -4 0 5 -12 19 -27 56 -60 123 -145 148 -188
22 -37 42 -53 118 -93 108 -58 155 -77 164 -68 4 3 -4 16 -17 29 -14 12 -25
20 -26 17 -1 -3 -6 -1 -11 4 -14 16 49 -4 142 -44 50 -22 104 -42 120 -46 17
-4 53 -23 82 -42 61 -40 63 -45 118 -302 9 -41 28 -110 42 -153 15 -48 23 -92
21 -115 -3 -22 3 -56 16 -87 17 -43 20 -70 18 -195 -2 -159 -8 -292 -21 -444
-6 -74 -13 -102 -25 -111 -9 -7 -14 -19 -11 -28 4 -8 -5 -27 -19 -42 -14 -15
-26 -32 -26 -37 0 -5 -5 -6 -11 -2 -6 3 -14 3 -18 -2 -3 -5 -32 -21 -64 -36
-52 -26 -56 -30 -45 -48 7 -10 21 -20 33 -22 11 -2 24 -13 30 -25 11 -27 18
-28 35 -8 10 12 10 15 -4 15 -9 0 -16 8 -16 20 0 15 6 19 25 18 29 -3 30 -9
10 -49 -9 -16 -14 -33 -11 -37 5 -9 -17 -104 -32 -142 -8 -18 -11 -20 -11 -7
-1 9 -6 17 -12 17 -5 0 -9 -10 -7 -22 2 -11 -2 -23 -7 -25 -7 -2 -11 12 -11
31 0 36 -13 61 -21 39 -5 -13 -34 -6 -44 10 -4 6 -15 7 -25 3 -14 -6 -16 -9
-5 -15 9 -6 10 -11 2 -15 -6 -4 -11 -16 -11 -27 0 -12 -7 -19 -20 -19 -14 0
-20 7 -20 21 0 11 -4 18 -8 15 -5 -3 -14 4 -22 14 -8 10 -17 17 -21 14 -14 -8
-49 20 -50 41 0 11 -3 14 -6 8 -2 -7 -11 -13 -19 -13 -8 0 -17 -7 -20 -15 -4
-8 -15 -15 -25 -15 -10 0 -19 -4 -19 -10 0 -11 -32 -1 -42 14 -4 5 1 15 10 22
9 7 13 16 8 21 -4 4 -15 -2 -23 -14 -14 -21 -44 -32 -42 -15 5 28 -3 34 -41
30 l-40 -4 5 36 c3 26 3 29 -3 10 -7 -21 -17 -26 -59 -33 -47 -8 -51 -10 -62
-46 -6 -21 -11 -61 -11 -89 0 -39 4 -52 18 -56 9 -3 -7 -4 -37 -2 -31 2 -57 9
-62 17 -5 8 -9 46 -9 84 0 79 -6 93 -47 111 -27 12 -27 13 -6 19 29 9 36 34
35 116 -2 100 -44 244 -85 287 -29 32 -198 144 -427 282 -142 86 -240 148
-376 238 -51 34 -96 62 -99 62 -4 0 -59 34 -176 109 -31 20 -99 62 -150 94
-52 32 -130 81 -174 108 -44 28 -111 66 -148 85 -37 19 -77 46 -89 59 -12 14
-25 25 -30 25 -4 0 -32 16 -62 35 -30 19 -57 35 -60 35 -5 0 -142 78 -172 98
-7 4 -27 19 -46 34 -18 15 -60 34 -92 42 -63 17 -96 39 -96 65 0 9 -10 23 -22
30 -113 71 -116 73 -135 62 -14 -7 -23 -7 -32 2 -6 7 -26 17 -44 23 -31 11
-36 22 -23 54 4 11 -12 25 -56 50 -35 19 -83 56 -109 81 -26 26 -72 63 -103
83 -31 20 -56 42 -56 49 0 7 -16 31 -35 53 l-35 39 38 10 c20 6 56 8 80 4 34
-5 41 -4 30 6 -22 21 -78 35 -138 35 -45 0 -71 -7 -116 -30 -67 -36 -88 -28
-49 18 65 77 230 69 314 -16 14 -15 43 -38 63 -52 20 -14 85 -63 143 -110 91
-72 105 -87 100 -107 -5 -20 -2 -22 23 -17 35 7 102 -30 102 -56 0 -16 18 -30
40 -30 8 0 48 113 70 198 20 77 31 257 20 331 -11 82 -9 91 30 115 18 10 30
26 30 37 0 13 4 18 12 13 7 -5 9 -2 6 7 -4 11 5 14 41 15 36 1 62 11 123 49
l77 47 135 6 c97 3 139 9 147 18 9 11 8 14 -2 14 -11 0 -11 2 1 10 10 6 11 10
3 10 -16 0 -17 34 -3 61 14 25 54 25 117 -2 31 -13 55 -30 62 -45 9 -21 17
-24 68 -24 105 -1 194 -9 206 -19 16 -12 106 6 109 22 0 7 2 17 3 22 2 6 3 16
4 23 0 7 7 12 14 11 22 -4 109 40 105 54 -3 6 -24 15 -48 18 -47 6 -70 28 -70
66 0 13 -7 56 -16 96 -20 90 -71 151 -136 161 -28 5 -42 12 -45 26 -3 11 -11
20 -19 20 -21 0 -25 17 -14 62 15 61 2 99 -40 119 -20 10 -41 13 -50 9 -8 -5
-37 -17 -65 -28 -44 -18 -51 -25 -56 -56 -3 -20 -8 -39 -11 -41 -3 -3 -34 -8
-69 -11 -66 -6 -89 -16 -89 -41 0 -8 -4 -12 -9 -8 -5 3 -12 -3 -16 -14 -9 -31
-44 -34 -56 -4 -14 36 -30 49 -73 57 -22 4 -54 18 -71 32 -22 16 -45 24 -72
24 -43 0 -38 -4 -123 97 -53 63 -96 60 -131 -9 -36 -71 -96 -41 -150 76 -13
28 -27 53 -31 54 -5 2 -8 12 -8 22 0 9 -6 23 -13 29 -21 17 -73 24 -93 13 -28
-16 -89 19 -103 60 -10 28 -8 39 15 86 15 31 24 62 20 74 -7 31 22 88 45 88
11 0 22 -7 25 -15 4 -8 12 -15 19 -15 8 0 27 -11 43 -25 44 -37 60 -33 67 19
6 37 12 46 46 65 24 14 47 20 59 16 23 -7 40 7 64 52 23 45 20 68 -14 118 -17
24 -30 48 -30 54 0 6 -15 18 -32 25 -18 8 -49 21 -70 30 -20 9 -42 16 -50 16
-8 0 -34 18 -58 40 -23 22 -52 42 -63 46 -29 9 -45 27 -49 53 -3 24 -38 41
-166 82 -35 11 -71 28 -80 37 -27 26 -70 52 -87 52 -9 0 -32 16 -52 35 -20 19
-39 35 -43 35 -4 0 -10 10 -13 21 -5 19 -11 21 -41 16 -26 -4 -38 -1 -52 14
-17 19 -54 26 -54 10 0 -5 15 -40 32 -77 27 -56 33 -82 33 -136 0 -69 -10 -95
-26 -67 -8 15 -54 35 -72 31 -4 -1 -7 2 -7 7 0 5 -8 8 -17 7 -29 -2 -64 106
-57 175 4 36 2 59 -5 63 -6 4 -11 19 -11 33 0 14 -7 40 -16 59 -15 32 -15 36
1 60 9 14 30 33 46 42 38 22 40 31 21 86 -16 44 -16 46 4 66 19 19 25 20 93 9
69 -10 74 -10 96 11 13 12 21 28 19 35 -4 9 2 11 20 8 30 -6 62 -38 47 -47
-21 -13 91 -126 125 -126 22 0 24 4 24 48 0 62 -34 130 -104 212 -72 83 -76
88 -76 95 0 3 -15 22 -34 41 l-34 35 -38 -26 c-50 -34 -67 -29 -77 23 -4 23
-12 42 -18 42 -13 0 -11 17 7 56 10 21 23 34 36 34 16 0 18 5 13 34 -4 20 -1
51 9 79 17 50 10 95 -20 128 -10 12 -14 27 -10 41 8 29 72 78 102 78 14 0 25
8 29 20 3 11 13 20 21 20 20 0 54 -18 54 -29 0 -5 47 -56 104 -115 101 -103
116 -112 168 -107 16 2 45 -47 54 -88 8 -41 30 -68 67 -86 38 -19 46 -20 82
-7 73 25 78 24 102 -16 12 -21 25 -55 28 -76 8 -43 -6 -59 -66 -76 -53 -15
-62 -45 -55 -177 6 -96 9 -110 30 -131 19 -20 27 -22 44 -13 11 6 44 11 72 11
46 0 53 -3 68 -30 12 -21 36 -38 82 -57 73 -30 113 -62 130 -104 7 -16 16 -29
21 -29 5 0 9 -7 9 -15 0 -8 9 -19 20 -25 11 -6 20 -8 20 -4 0 3 6 2 13 -3 6
-6 28 -13 48 -17 32 -6 38 -11 47 -46 5 -21 7 -51 4 -65 -5 -26 -7 -27 -48
-21 -42 5 -43 5 -34 -19 6 -16 5 -25 -3 -29 -7 -2 -2 -5 11 -5 12 -1 22 -5 22
-10 0 -5 9 -7 20 -4 12 3 28 -1 38 -10 23 -20 87 -36 139 -34 28 1 48 -4 59
-15 19 -19 13 -46 -13 -54 -10 -3 -26 -10 -35 -15 -10 -5 -32 -9 -50 -9 -18 0
-39 -4 -47 -9 -20 -13 15 -61 45 -61 13 0 23 -3 23 -7 -5 -30 35 -77 58 -69
11 4 13 2 9 -9 -4 -11 1 -15 19 -15 19 0 26 -7 31 -27 8 -31 29 -68 56 -99 24
-27 65 -21 80 11 5 12 30 39 54 59 49 41 52 54 29 131 -11 34 -13 68 -9 106 6
55 -7 106 -25 95 -4 -3 -27 15 -50 39 -24 25 -47 45 -52 45 -14 0 -66 55 -73
78 -6 19 -44 56 -114 111 -21 17 -34 39 -42 71 -7 27 -25 61 -45 83 -26 28
-35 47 -35 73 0 19 4 34 9 34 28 0 15 106 -16 127 -50 34 -63 49 -63 78 0 44
-48 229 -60 233 -5 2 -10 12 -10 23 0 10 -4 19 -10 19 -5 0 -12 11 -16 25 -3
14 -10 25 -14 25 -4 0 -10 12 -13 28 -6 29 -53 62 -89 62 -12 0 -34 14 -50 31
-28 28 -30 35 -27 97 2 37 7 73 12 80 12 16 -5 37 -59 68 -50 30 -84 90 -88
158 -1 25 -4 47 -7 49 -59 44 -95 74 -101 81 -4 6 -10 39 -14 74 -3 35 -13 69
-20 77 -8 7 -14 17 -14 20 0 4 -13 24 -30 45 -21 26 -43 41 -76 50 -64 18 -70
35 -56 166 l12 107 -30 58 c-16 33 -30 61 -30 64 -1 13 -15 41 -29 57 -14 16
-34 18 -176 18 l-160 0 3 -64 4 -64 59 -38 c79 -49 104 -84 90 -124 -5 -17 -7
-30 -3 -30 4 -1 -9 -9 -28 -18 -22 -11 -42 -31 -53 -55 l-17 -38 27 -35 c31
-41 36 -95 11 -120 -35 -35 -198 -17 -198 22 0 22 -42 54 -71 54 -15 0 -35 8
-44 17 -16 16 -18 16 -27 0 -6 -12 -16 -15 -34 -11 -23 6 -24 5 -24 -50 0 -44
6 -65 26 -96 15 -22 33 -40 40 -40 20 0 82 -58 90 -83 11 -38 48 -87 67 -87 9
0 17 -4 17 -9 0 -5 7 -12 16 -15 10 -4 13 -2 8 6 -5 8 -2 9 9 5 14 -5 17 0 17
32 0 23 7 44 17 54 16 14 20 14 41 -3 13 -11 28 -35 33 -55 10 -35 29 -48 29
-19 0 8 5 12 11 9 6 -4 8 -13 5 -20 -3 -8 2 -19 10 -25 18 -16 18 -49 -1 -74
-8 -11 -15 -16 -15 -11 0 4 -8 1 -19 -9 -23 -20 -33 -10 -52 52 -13 44 -21 48
-63 32 -18 -6 -26 -17 -26 -33 0 -28 -22 -77 -34 -77 -5 0 -29 16 -53 36 -24
20 -67 44 -95 55 -57 21 -85 42 -94 73 -10 33 -72 105 -105 122 -17 8 -47 14
-67 12 -34 -3 -37 -6 -42 -38 -5 -32 -14 -39 -40 -31 -33 11 -97 7 -122 -9
-40 -24 -68 -16 -68 20 0 19 -6 31 -18 34 -22 8 -55 87 -45 112 9 24 52 65 93
87 l33 18 -7 69 c-3 38 -11 81 -16 95 -7 19 -6 45 5 93 23 100 13 158 -39 221
l-41 50 -62 0 -63 1 0 -380z m4978 212 c9 -37 8 -44 -7 -52 -18 -9 -58 -4 -77
11 -6 5 -14 6 -17 2 -4 -3 -7 -1 -7 5 0 6 11 14 24 18 13 3 32 21 42 40 21 39
27 35 42 -24z m2048 22 c13 -14 24 -36 24 -49 0 -31 -34 -51 -64 -37 -11 6
-29 13 -38 16 -27 8 -22 51 8 75 34 27 42 26 70 -5z m1940 -12 c6 -4 13 -20
16 -36 6 -30 2 -35 -73 -102 -44 -39 -29 -128 32 -183 55 -51 59 -80 13 -109
-33 -21 -37 -22 -59 -8 -13 8 -28 31 -35 51 -6 19 -16 35 -21 35 -22 0 -69 65
-69 95 0 16 -7 39 -15 49 -16 21 -20 73 -7 92 4 7 29 23 55 37 26 14 66 40 89
56 43 32 55 36 74 23z m-903 -33 c12 -20 -25 -74 -65 -95 -28 -14 -85 -19
-112 -8 -14 5 -14 8 1 30 8 13 12 24 8 24 -17 0 44 40 62 40 10 1 29 7 43 15
30 17 49 16 63 -6z m285 -331 c21 -20 35 -23 110 -24 48 -1 99 -4 114 -9 21
-6 37 -1 73 24 38 26 53 30 80 25 52 -9 66 -24 57 -59 -8 -28 -97 -103 -109
-91 -3 3 -28 -4 -56 -15 -75 -30 -167 -47 -202 -37 -32 8 -65 2 -65 -12 0 -17
-98 -57 -170 -69 -41 -7 -115 -23 -164 -36 -82 -21 -90 -22 -107 -7 -34 29
-24 62 38 119 32 30 71 57 87 61 20 6 37 20 49 43 19 37 56 63 127 90 64 25
109 24 138 -3z m472 -8 c0 -5 -4 -10 -10 -10 -5 0 -10 5 -10 10 0 6 5 10 10
10 6 0 10 -4 10 -10z m-3775 -90 c14 -15 26 -19 54 -14 29 4 41 0 64 -21 15
-14 27 -32 27 -39 0 -8 7 -17 16 -20 8 -3 12 -11 8 -17 -4 -7 -9 -8 -13 -1 -3
6 -24 11 -46 13 -22 1 -46 7 -53 12 -8 7 -17 6 -24 -1 -7 -7 -18 -12 -25 -12
-30 0 -53 -34 -53 -78 0 -49 -14 -82 -35 -82 -15 0 -58 -38 -72 -65 -11 -19
-205 -24 -227 -6 -16 14 -40 6 -31 -10 4 -5 1 -9 -5 -9 -6 0 -31 -12 -56 -26
-47 -28 -107 -36 -200 -27 -45 5 -52 9 -70 42 -17 32 -24 36 -58 36 -30 1 -40
-3 -47 -21 -20 -53 -177 -97 -209 -59 -7 8 -16 15 -21 15 -18 0 -71 59 -67 76
5 25 74 44 182 49 89 4 123 -4 139 -31 10 -18 40 8 66 57 29 53 60 70 127 71
69 1 134 17 187 47 21 12 42 19 46 16 9 -5 81 69 81 83 0 14 50 21 77 11 20
-7 128 13 142 26 13 14 80 3 96 -15z m-3880 -96 c8 -13 22 -24 29 -24 15 0 96
-86 96 -101 0 -5 -7 -9 -15 -9 -7 0 -18 -6 -22 -14 -8 -14 -30 -20 -64 -17 -9
0 -32 12 -52 25 -19 13 -43 26 -53 28 -23 4 -30 55 -10 77 8 9 19 28 25 43 12
32 42 29 66 -8z m2515 -12 c0 -5 19 -14 42 -21 23 -7 58 -21 77 -32 20 -10 41
-19 48 -19 14 0 16 -10 5 -25 -10 -14 -62 -36 -71 -31 -4 3 -30 -1 -57 -8 -27
-7 -66 -11 -86 -10 -21 2 -38 -1 -38 -6 0 -13 -33 -21 -100 -25 -33 -1 -66 -7
-73 -13 -6 -5 -24 -12 -38 -15 -35 -9 -90 28 -104 68 -5 17 -16 36 -23 44 -9
10 -10 17 -3 24 17 17 38 19 171 19 118 -1 126 0 150 23 14 12 34 25 45 28 34
8 55 7 55 -1z m1490 -28 c0 -8 -4 -12 -10 -9 -5 3 -10 10 -10 16 0 5 5 9 10 9
6 0 10 -7 10 -16z m-3014 -21 c-10 -10 -19 5 -10 18 6 11 8 11 12 0 2 -7 1
-15 -2 -18z m254 -148 c0 -8 9 -20 20 -27 11 -7 20 -20 20 -30 0 -26 -11 -48
-21 -42 -5 3 -9 0 -9 -5 0 -20 -26 -11 -37 12 -38 78 -34 139 7 117 11 -6 20
-17 20 -25z m4330 -1 c0 -8 -4 -12 -10 -9 -5 3 -10 10 -10 16 0 5 5 9 10 9 6
0 10 -7 10 -16z m1041 -16 c30 -12 63 -30 73 -40 25 -23 32 -22 55 1 16 16 21
16 43 5 14 -7 28 -21 32 -29 3 -9 10 -13 16 -10 5 3 7 0 4 -9 -3 -8 -19 -20
-35 -27 -19 -7 -28 -17 -25 -26 4 -9 0 -13 -12 -11 -18 3 -65 -25 -57 -34 3
-3 -8 -11 -25 -18 -24 -10 -36 -10 -60 0 -16 7 -30 18 -30 24 -1 21 -49 66
-74 68 -13 1 -24 5 -24 8 1 3 -2 12 -6 22 -13 28 33 96 65 98 4 0 31 -10 60
-22z m-5581 -48 c0 -5 -4 -10 -10 -10 -5 0 -10 5 -10 10 0 6 5 10 10 10 6 0
10 -4 10 -10z m934 -80 c28 -10 35 -37 12 -46 -8 -3 -26 2 -40 12 -21 13 -24
19 -15 30 14 17 11 16 43 4z m-1706 -41 c17 -26 6 -59 -19 -59 -21 0 -22 3
-13 49 8 36 14 39 32 10z m2736 -73 c20 -18 32 -36 28 -40 -4 -4 -7 -13 -7
-18 0 -6 -6 -13 -12 -15 -7 -3 -13 0 -13 5 0 6 -9 8 -20 5 -24 -6 -69 36 -61
58 4 14 31 38 43 39 4 0 23 -15 42 -34z m-3703 -63 c69 -76 78 -143 24 -174
-45 -26 -82 -4 -118 69 -30 63 -31 69 -17 106 14 38 76 37 111 -1z m8772 0
c22 -11 27 -20 27 -48 l0 -35 -63 0 c-74 0 -104 21 -91 62 15 47 60 55 127 21z
m-5259 -29 c3 -8 10 -12 16 -9 5 3 10 -1 10 -10 0 -10 -5 -13 -12 -9 -8 4 -10
3 -5 -2 5 -5 14 -9 20 -9 18 0 20 -33 3 -50 -20 -21 -72 -30 -81 -15 -12 19
-8 82 7 91 10 7 10 9 -2 9 -13 0 -13 1 0 10 22 14 37 12 44 -6z m4327 -17 c8
-12 -26 -47 -45 -47 -29 0 -46 13 -46 35 0 14 7 25 18 28 22 6 65 -4 73 -16z
m-795 -41 c25 -25 50 -47 55 -47 48 -7 76 -3 92 13 20 20 43 23 52 7 9 -14
-24 -38 -51 -39 -17 0 -23 -8 -26 -32 -3 -18 0 -41 6 -50 17 -28 105 -36 157
-14 13 6 17 -3 23 -48 7 -64 -4 -100 -36 -117 -13 -6 -27 -18 -31 -25 -4 -8
-16 -14 -26 -14 -10 0 -24 -7 -31 -15 -6 -8 -22 -17 -33 -21 -12 -4 -38 -20
-57 -35 -26 -22 -45 -29 -78 -29 -39 0 -43 2 -48 30 -6 27 -34 64 -34 44 0 -4
-10 3 -22 16 -15 16 -18 25 -10 28 18 6 4 22 -19 22 -21 0 -58 36 -59 56 0 17
-50 34 -90 31 -32 -2 -35 0 -33 26 1 15 -1 27 -5 27 -21 0 -7 49 26 90 20 25
44 54 52 65 8 10 30 34 48 53 30 32 36 34 83 30 44 -5 56 -11 95 -52z m-3666
24 c0 -5 -4 -10 -10 -10 -5 0 -10 5 -10 10 0 6 5 10 10 10 6 0 10 -4 10 -10z
m2415 -101 c73 -37 84 -87 28 -125 -31 -20 -34 -21 -130 -7 -54 8 -102 18
-107 23 -19 18 15 70 59 89 23 10 45 23 48 28 10 17 60 13 102 -8z m454 -65
c22 -32 23 -35 7 -59 -13 -19 -25 -25 -54 -25 -40 1 -72 19 -72 41 0 7 11 29
25 50 32 45 60 43 94 -7z m-3720 7 c27 -49 -84 -77 -121 -31 -19 23 -19 25 -2
37 10 7 39 13 66 13 36 0 50 -4 57 -19z m2146 -166 c72 -16 247 -76 301 -103
22 -11 54 -23 73 -27 19 -4 55 -20 80 -36 81 -51 129 -86 101 -74 -10 4 -10 2
2 -8 20 -16 60 -105 53 -117 -3 -4 -14 -6 -25 -3 -11 3 -20 0 -20 -6 0 -6 4
-11 10 -11 6 0 6 -9 0 -24 -7 -19 -5 -30 9 -48 25 -32 31 -54 35 -134 7 -120
15 -144 50 -160 43 -18 31 -17 -69 7 -48 11 -89 18 -92 16 -2 -3 17 -10 44
-16 79 -17 188 -57 189 -69 1 -7 2 -26 3 -43 1 -20 5 -28 13 -23 12 8 9 1 -29
-55 -13 -19 -23 -27 -23 -20 0 8 7 25 16 37 14 20 14 22 -4 22 -20 0 -105 -68
-98 -79 3 -4 -3 -7 -12 -8 -56 -6 -153 -29 -146 -35 4 -5 -4 -8 -17 -8 -19 0
-21 -2 -9 -10 11 -8 8 -9 -12 -4 -16 3 -28 2 -28 -3 0 -9 -23 -14 -80 -16 -19
0 -38 -6 -42 -11 -5 -7 -8 -5 -8 4 0 8 -9 21 -20 28 -11 7 -20 19 -20 26 0 8
-9 18 -20 21 -11 3 -20 10 -20 15 0 16 -57 65 -75 65 -12 0 -28 15 -41 38 -11
21 -30 44 -41 52 -11 7 -34 27 -52 44 -18 17 -42 31 -53 31 -14 0 -18 5 -14
15 3 10 -3 17 -19 21 -14 3 -22 10 -19 15 3 5 -2 9 -11 9 -10 0 -30 14 -45 30
-18 20 -38 30 -56 30 -17 0 -24 4 -19 9 6 6 35 4 75 -4 36 -8 85 -14 110 -14
27 0 -22 12 -120 29 -117 20 -187 38 -240 61 -67 29 -87 33 -190 36 -63 3
-116 9 -118 14 -5 12 -59 12 -67 -1 -3 -5 -16 -10 -27 -10 -21 0 -21 1 5 28
15 16 25 31 21 35 -3 3 6 18 21 34 14 15 41 48 58 73 17 25 52 65 77 90 26 25
59 62 75 84 34 45 81 76 145 96 25 8 54 20 65 27 11 7 30 13 42 13 13 0 31 4
41 9 34 18 148 38 187 34 22 -3 67 -11 100 -18z m-1555 -258 c0 -23 -8 -41
-27 -59 -63 -60 -124 -56 -120 6 4 58 36 81 115 85 30 1 32 -1 32 -32z m168
-113 c12 -4 22 -14 23 -23 0 -11 3 -9 9 7 12 28 15 28 17 0 3 -40 -33 -84 -82
-100 -25 -9 -45 -11 -45 -7 0 5 -9 18 -20 29 -11 11 -16 20 -11 20 5 0 14 14
21 30 18 44 42 56 88 44z m5546 -59 c3 -8 1 -25 -4 -37 -5 -13 -9 -17 -9 -10
-1 6 -9 12 -20 12 -10 0 -24 7 -32 16 -10 13 -10 17 2 25 22 14 56 11 63 -6z
m-2616 -35 c46 -29 111 -90 127 -120 7 -14 25 -32 39 -40 14 -7 26 -20 26 -29
0 -14 2 -14 10 -1 9 13 10 13 10 0 0 -8 -12 -26 -25 -39 -14 -13 -25 -29 -25
-36 0 -18 -17 -22 -78 -17 -43 3 -55 8 -61 26 -18 45 -46 59 -110 53 -33 -3
-65 -8 -72 -13 -7 -4 -24 -8 -39 -9 -34 -3 -34 29 0 75 25 34 151 166 160 169
3 0 20 -8 38 -19z m-2230 -67 c-10 -2 -28 -2 -40 0 -13 2 -5 4 17 4 22 1 32
-1 23 -4z m-774 -42 c4 -5 0 -12 -6 -14 -10 -4 -9 -8 2 -16 13 -10 13 -12 0
-21 -8 -5 -19 -8 -24 -7 -17 5 -29 34 -23 51 7 17 42 22 51 7z m4406 -117 c0
-8 -5 -12 -10 -9 -6 4 -8 11 -5 16 9 14 15 11 15 -7z m-4326 -56 c5 -21 3 -28
-8 -28 -22 0 -36 31 -24 53 12 22 23 13 32 -25z m-57 10 c-3 -8 -6 -5 -6 6 -1
11 2 17 5 13 3 -3 4 -12 1 -19z m-277 -29 c22 0 23 -1 7 -10 -10 -6 -29 -8
-43 -5 -17 5 -24 2 -24 -9 0 -19 -14 -19 -30 0 -19 23 -2 38 34 30 17 -4 42
-7 56 -6z m5608 -42 c34 -49 30 -63 -18 -68 -45 -4 -56 1 -79 32 -20 27 -22
34 -11 55 11 19 51 35 70 28 3 -1 20 -22 38 -47z m-3138 33 c11 -8 7 -9 -15
-4 -37 8 -45 14 -19 14 10 0 26 -5 34 -10z m-843 -79 c13 -19 23 -39 23 -45
-1 -6 -9 4 -19 23 -10 18 -29 40 -42 48 -20 11 -21 13 -4 11 10 -2 30 -18 42
-37z m4073 10 c0 -11 -26 -22 -34 -14 -12 12 -5 23 14 23 11 0 20 -4 20 -9z
m-5873 -42 c4 -22 -10 -37 -42 -44 -17 -4 -25 -3 -20 2 6 4 12 17 13 28 7 34
44 45 49 14z m283 2 c0 -5 13 -14 30 -19 29 -10 73 -50 102 -90 7 -11 30 -27
50 -35 33 -14 36 -18 29 -44 -6 -23 -13 -28 -44 -30 -19 -2 -38 1 -42 7 -3 5
-16 10 -27 10 -12 0 -36 12 -55 26 -19 14 -50 30 -68 35 -41 12 -63 32 -72 67
-4 18 -2 27 8 31 7 2 22 15 34 27 20 23 55 33 55 15z m1476 -48 c13 -18 86
-195 99 -242 4 -13 20 -44 36 -69 49 -78 43 -84 -84 -85 -86 -1 -95 1 -136 28
-95 64 -94 64 -141 58 -35 -4 -49 -1 -59 11 -12 14 -11 20 9 41 13 14 31 27
41 30 9 3 25 25 34 48 9 23 20 44 24 47 4 3 22 30 40 60 48 79 70 101 99 95
13 -2 30 -12 38 -22z m3867 -33 c7 -11 45 -34 83 -52 53 -25 80 -32 119 -31
54 2 104 -12 106 -31 3 -22 -3 -41 -15 -54 -10 -11 -21 -10 -57 1 -30 10 -84
14 -168 12 -144 -2 -163 6 -163 69 0 21 5 41 10 45 6 4 15 19 21 34 12 32 44
36 64 7z m-3036 -32 c-3 -8 -6 -5 -6 6 -1 11 2 17 5 13 3 -3 4 -12 1 -19z
m354 -125 c20 -20 21 -23 5 -38 -9 -9 -36 -18 -60 -20 -24 -1 -55 -10 -67 -19
-34 -23 -37 -20 -29 22 12 67 22 77 79 77 38 0 56 -5 72 -22z m-362 -111 c3
-118 -19 -242 -58 -337 -5 -11 -15 -42 -24 -70 -14 -46 -15 -48 -16 -17 -1 28
-3 31 -15 20 -8 -7 -12 -17 -9 -23 2 -5 -2 -2 -10 8 -16 20 -31 23 -24 5 2 -7
-11 -27 -29 -44 -18 -18 -30 -34 -27 -38 11 -10 -22 -7 -35 4 -9 7 -9 7 -2 -2
15 -18 12 -28 -5 -22 -9 4 -15 0 -15 -8 0 -23 -30 -17 -31 6 -1 17 -2 18 -6 3
-2 -9 -9 -15 -14 -12 -5 4 -9 -1 -9 -10 0 -9 -4 -14 -10 -10 -5 3 -28 -13 -50
-35 -41 -41 -60 -46 -68 -20 -3 7 0 10 5 7 6 -4 13 11 16 36 14 103 23 121 73
133 40 10 53 27 56 67 2 23 7 33 16 30 8 -4 10 0 6 11 -3 9 -11 16 -18 16 -6
0 -3 5 7 11 9 5 17 19 17 31 0 11 11 29 25 40 26 20 58 72 50 80 -3 3 13 10
34 17 58 17 95 60 126 146 16 43 31 71 35 65 4 -7 8 -46 9 -88z m163 42 c-6
-11 -11 -13 -16 -5 -4 6 -2 11 3 11 6 0 11 5 11 11 0 5 -4 7 -10 4 -6 -4 -7 1
-3 11 5 15 7 15 15 0 5 -9 5 -23 0 -32z m2315 -3 c23 -30 46 -51 60 -51 7 0
13 -11 13 -25 0 -29 -23 -33 -47 -9 -10 10 -31 15 -57 13 -53 -2 -93 9 -101
28 -10 27 5 53 33 59 15 3 32 7 37 9 18 6 50 -6 62 -24z m-4587 -27 c19 -18
25 -175 7 -186 -17 -11 -49 -10 -42 2 3 5 0 7 -9 4 -8 -3 -17 -12 -20 -20 -8
-20 -75 -18 -98 3 -28 25 -23 61 12 81 22 13 29 23 28 43 -1 18 9 38 32 63 36
37 58 40 90 10z m2203 -5 c16 -23 18 -45 19 -183 0 -147 -1 -160 -22 -188 -12
-16 -28 -52 -37 -81 -8 -29 -20 -57 -25 -64 -17 -21 -27 -83 -18 -113 7 -24 6
-28 -8 -23 -10 3 -5 -4 10 -15 14 -12 33 -19 41 -16 23 8 57 -14 57 -36 0 -11
5 -20 10 -20 23 0 8 -36 -23 -54 -52 -30 -83 -36 -104 -20 -10 8 -40 30 -67
49 l-49 34 27 10 c31 12 35 31 6 31 -29 0 -26 42 8 115 48 101 99 300 101 398
1 45 18 30 25 -23 4 -27 11 -52 16 -55 9 -6 12 2 15 50 0 11 4 52 9 92 10 91
3 115 -30 107 -17 -5 -24 -2 -24 9 0 16 17 27 34 23 6 -1 18 -14 29 -27z
m-661 -59 c53 -23 233 -50 333 -50 72 0 77 1 115 36 22 20 40 32 40 26 0 -15
-58 -61 -87 -68 -38 -10 -215 2 -313 21 -95 19 -139 41 -171 88 l-22 32 31
-33 c18 -18 51 -41 74 -52z m-2256 58 c12 -19 12 -67 0 -82 -16 -20 -62 -28
-74 -13 -21 25 -17 53 12 80 31 29 51 34 62 15z m3811 -19 c3 -11 17 -25 30
-30 22 -8 24 -14 19 -42 -3 -19 1 -71 9 -116 18 -95 9 -151 -26 -151 -10 0
-19 -5 -19 -11 0 -13 46 -59 59 -59 13 0 65 -60 66 -77 10 -98 9 -103 -16
-103 -54 0 -121 77 -134 155 -4 22 -14 48 -22 57 -20 23 -12 52 15 56 12 2 22
7 22 12 0 5 -7 7 -15 4 -10 -4 -15 0 -15 12 0 23 -29 54 -51 54 -10 0 -20 4
-23 9 -4 5 -29 12 -58 16 -34 5 -59 15 -75 31 -14 14 -36 24 -53 24 -34 0 -41
8 -33 38 5 19 12 22 64 22 70 0 102 12 151 58 35 33 74 59 91 61 5 1 11 -8 14
-20z m640 -21 c18 -7 33 -17 33 -23 0 -7 9 -20 20 -30 14 -13 18 -25 14 -39
-4 -12 -7 -27 -7 -33 0 -7 -10 -13 -21 -14 -49 -1 -111 -11 -129 -20 -14 -8
-17 -17 -11 -42 3 -18 12 -40 19 -50 7 -10 11 -27 8 -38 -5 -16 -12 -19 -47
-15 -23 2 -59 13 -81 25 -22 11 -47 21 -57 21 -9 0 -20 9 -23 21 -5 16 3 30
38 62 37 34 46 49 49 82 2 32 9 44 36 63 18 12 43 22 55 22 12 0 29 5 37 10
20 13 27 12 67 -2z m-3581 -143 c4 -53 -5 -56 -59 -20 -53 36 -49 80 8 87 36
4 45 -8 51 -67z m433 -81 c6 4 11 2 11 -4 0 -6 5 -8 10 -5 9 5 12 -8 9 -31 0
-4 3 -10 8 -13 31 -22 38 -158 9 -190 -9 -10 -16 -23 -16 -30 0 -7 -5 -9 -10
-6 -6 4 -8 15 -5 25 3 10 1 21 -5 25 -5 3 -10 14 -10 24 0 10 -6 24 -14 30 -8
7 -12 21 -9 31 4 14 0 20 -11 20 -10 0 -15 4 -12 9 4 5 1 11 -6 13 -10 4 -10
10 0 32 10 22 9 28 -3 32 -23 9 -18 24 8 25 12 0 16 3 8 6 -11 5 -11 7 0 14 8
4 16 3 20 -3 4 -6 12 -7 18 -4z m556 -4 c-3 -5 -11 -10 -16 -10 -6 0 -7 5 -4
10 3 6 11 10 16 10 6 0 7 -4 4 -10z m143 -22 c3 -14 -3 -18 -25 -18 -59 0 -97
23 -55 33 39 9 77 2 80 -15z m91 3 c17 -11 6 -31 -18 -31 -25 0 -33 11 -20 27
13 15 19 16 38 4z m-4363 -86 c4 -8 1 -22 -6 -30 -10 -12 -8 -18 10 -33 23
-19 23 -52 1 -52 -13 0 -46 49 -38 57 3 3 -4 13 -16 23 -18 15 -19 20 -8 34
17 20 50 21 57 1z m3929 -6 c-8 -12 -35 -12 -35 0 0 11 22 20 33 14 4 -2 5 -9
2 -14z m200 -3 c26 -11 41 -12 63 -4 23 9 35 8 62 -5 18 -10 41 -17 51 -17 10
0 21 -5 24 -10 11 -18 -15 -39 -43 -35 -15 3 -71 7 -124 9 -53 3 -106 10 -117
16 -12 6 -25 8 -30 6 -5 -3 -20 3 -32 14 l-24 19 37 1 c20 0 40 5 43 10 9 14
50 12 90 -4z m3942 -28 c15 -6 31 -12 36 -12 7 -1 47 -56 47 -66 0 -3 -25 -6
-56 -8 -45 -2 -59 1 -70 15 -17 23 -18 70 -1 76 6 3 13 6 14 6 1 1 14 -4 30
-11z m-3675 -40 c-9 -9 -15 -9 -23 -1 -7 7 -9 20 -5 29 6 16 8 16 23 1 13 -13
15 -19 5 -29z m-652 13 c0 -5 14 -12 30 -16 29 -6 42 -25 18 -25 -9 0 -9 -3 0
-12 14 -14 16 -54 3 -62 -5 -3 -7 -15 -4 -26 3 -11 9 -17 14 -14 5 3 7 10 4
15 -3 5 1 6 9 3 17 -6 22 -24 7 -24 -12 0 -1 -50 13 -52 6 0 18 -1 26 -2 8 -1
21 -13 28 -28 21 -44 73 -62 94 -33 5 6 8 5 8 -4 0 -8 6 -11 17 -7 10 4 23 -1
35 -14 14 -15 23 -18 37 -10 10 5 39 7 64 4 28 -4 54 -1 68 7 13 7 30 14 38
15 22 4 39 26 45 57 4 22 1 27 -16 27 -11 0 -22 8 -25 20 -5 21 -60 37 -88 27
-8 -4 -17 -2 -19 2 -3 5 -33 16 -66 25 -37 11 -60 22 -57 29 4 11 -48 50 -85
63 -15 5 -27 44 -14 44 2 0 57 -9 121 -20 68 -12 163 -20 225 -20 77 0 112 -4
122 -13 14 -14 40 -15 93 -3 21 5 39 1 61 -13 30 -18 32 -23 29 -67 -2 -27 -8
-50 -14 -52 -6 -2 -8 -14 -5 -28 3 -13 2 -24 -4 -24 -5 0 -9 -27 -8 -60 0 -33
-2 -60 -6 -60 -4 0 -10 -9 -13 -20 -4 -11 -10 -18 -15 -15 -4 3 -6 -4 -3 -15
4 -16 2 -19 -11 -14 -9 3 -16 1 -16 -6 0 -6 -6 -8 -12 -4 -10 5 -10 4 -1 -6
15 -16 -10 -45 -32 -36 -13 5 -19 -5 -16 -26 0 -4 -6 -5 -15 -1 -13 5 -13 8
-2 15 9 7 8 8 -7 5 -11 -2 -19 -9 -17 -16 1 -7 -2 -10 -8 -6 -6 3 -7 11 -4 17
4 6 1 8 -7 6 -8 -3 -13 -10 -12 -16 1 -5 -4 -13 -12 -16 -8 -3 -15 -2 -15 2 0
4 -16 8 -35 8 -19 1 -32 -2 -30 -6 7 -11 -22 -6 -32 5 -4 4 -2 5 6 0 10 -6 12
-4 7 4 -5 7 -12 9 -19 3 -16 -11 -42 -8 -40 5 1 7 -14 10 -42 9 -25 -1 -45 2
-45 7 0 5 -9 7 -21 4 -24 -7 -69 8 -84 27 -6 7 -21 17 -35 21 l-25 8 20 -23
20 -23 -23 12 c-13 7 -30 10 -37 7 -7 -2 -16 2 -19 9 -3 9 -16 13 -35 10 -23
-2 -30 1 -34 17 -4 13 -10 17 -18 12 -9 -5 -11 -1 -6 15 4 17 2 21 -9 17 -18
-7 -44 3 -44 16 0 6 -8 17 -17 25 -13 10 -14 16 -6 19 9 4 8 16 -4 47 -9 23
-20 46 -25 52 -13 14 -9 28 6 22 18 -7 40 18 31 34 -4 6 -17 9 -30 7 -18 -4
-21 -1 -17 14 2 10 10 18 16 18 12 0 14 38 3 57 -4 6 2 13 14 16 15 4 20 11
16 21 -4 9 -2 16 3 16 6 0 10 -4 10 -9z m3084 -12 c-3 -5 -10 -7 -15 -3 -5 3
-7 10 -3 15 3 5 10 7 15 3 5 -3 7 -10 3 -15z m-1574 -14 c0 -8 -4 -15 -10 -15
-5 0 -10 7 -10 15 0 8 5 15 10 15 6 0 10 -7 10 -15z m3451 -22 c9 -11 10 -14
2 -10 -8 5 -15 -2 -19 -20 -3 -15 -12 -32 -18 -38 -27 -22 -25 -52 5 -74 15
-11 35 -18 43 -15 8 3 25 0 38 -7 13 -7 26 -12 31 -11 16 5 6 -28 -12 -38 -25
-13 -102 -13 -135 0 -14 5 -28 5 -31 1 -3 -5 -13 -7 -23 -5 -10 3 -31 -8 -52
-26 -27 -24 -42 -30 -70 -28 -29 2 -35 7 -38 28 -2 14 11 51 28 83 16 31 30
63 30 70 0 45 89 104 140 94 16 -4 32 -2 35 3 9 15 31 12 46 -7z m-3790 -26
c-10 -9 -11 -8 -5 6 3 10 9 15 12 12 3 -3 0 -11 -7 -18z m-1799 -9 c6 -17 -18
-61 -53 -99 -17 -18 -45 -54 -62 -79 -17 -25 -34 -46 -39 -48 -4 -2 -8 -9 -8
-17 0 -7 -7 -18 -15 -25 -12 -10 -15 -10 -15 4 0 19 -16 21 -23 4 -4 -10 -8
-9 -16 2 -6 8 -11 10 -11 4 0 -16 -71 -2 -83 17 -13 20 -3 58 20 84 11 11 25
34 32 52 7 17 23 41 36 53 20 19 31 22 65 16 22 -3 49 -2 60 4 10 6 31 11 45
12 14 1 31 8 37 15 13 16 25 17 30 1z m1597 -109 c-20 -12 -22 -4 -7 20 11 18
14 19 16 5 2 -9 -2 -20 -9 -25z m2516 -80 c4 -6 14 -8 22 -5 18 7 73 -23 73
-40 0 -12 -34 -12 -85 1 -31 8 -45 21 -45 43 0 15 26 16 35 1z m-5892 -111
c18 -7 27 -18 27 -32 0 -27 49 -73 86 -81 84 -18 106 -29 124 -66 28 -54 35
-112 19 -148 -8 -17 -19 -31 -24 -31 -6 0 -19 -9 -28 -21 -16 -18 -26 -20 -80
-15 -143 13 -168 18 -194 42 -26 24 -84 41 -101 30 -25 -15 -142 49 -142 78 0
14 51 66 65 66 7 0 20 9 29 19 10 11 28 22 41 25 19 5 25 16 34 67 6 37 17 67
28 75 19 14 66 11 116 -8z m6360 -9 c12 -6 32 -20 44 -31 22 -21 22 -21 131
-3 38 7 42 6 42 -13 0 -13 -21 -39 -55 -68 -72 -62 -72 -84 -5 -166 27 -34 50
-71 52 -82 2 -14 14 -23 38 -28 53 -11 94 7 141 63 22 27 48 49 57 49 10 0 26
7 36 15 11 8 28 15 38 15 10 0 32 14 48 30 16 17 36 30 45 30 9 0 26 7 39 15
12 8 34 16 49 17 17 2 23 6 17 13 -11 14 -2 49 25 93 15 25 26 32 50 32 59 0
62 -80 3 -114 -31 -19 -34 -32 -13 -60 9 -12 15 -42 15 -79 0 -32 6 -73 13
-90 46 -107 42 -121 -36 -124 -40 -2 -54 -8 -78 -34 -16 -17 -29 -39 -29 -50
0 -10 -8 -22 -17 -28 -28 -14 -124 -5 -166 17 -31 17 -44 18 -70 10 -18 -5
-40 -10 -49 -10 -10 1 -18 -3 -18 -8 0 -6 -22 -21 -50 -35 -27 -14 -50 -32
-50 -40 0 -8 -4 -15 -10 -15 -16 0 -12 14 11 39 21 22 21 23 4 56 -18 31 -22
33 -109 45 -112 15 -129 23 -145 66 -16 44 -34 53 -112 53 -136 -1 -188 8
-230 37 -50 34 -63 57 -49 84 11 21 16 23 70 21 32 -2 37 2 62 49 l28 50 64 0
c36 0 67 4 70 8 3 4 -10 23 -27 42 -18 18 -40 45 -49 59 -10 14 -18 20 -18 14
0 -7 -4 -13 -10 -13 -5 0 -10 7 -10 15 0 20 36 37 84 39 23 1 50 7 61 14 25
15 41 15 68 1z m-3813 -39 c0 -5 -2 -10 -4 -10 -3 0 -8 5 -11 10 -3 6 -1 10 4
10 6 0 11 -4 11 -10z m1195 -21 c5 -5 21 -9 36 -9 21 0 28 -6 32 -27 5 -29 -9
-57 -24 -47 -5 2 -30 -5 -56 -17 -26 -12 -69 -24 -96 -27 -43 -4 -47 -3 -41
14 3 11 2 15 -3 8 -11 -14 -46 -27 -38 -13 4 5 1 16 -5 24 -9 11 -9 15 -1 15
6 0 11 8 11 17 0 9 3 13 7 10 3 -4 12 -2 20 4 7 6 13 8 13 5 0 -4 14 9 31 28
27 32 35 35 67 30 21 -3 41 -10 47 -15z m1317 -21 c-6 -6 -14 -9 -17 -6 -3 3
-3 13 1 22 5 12 10 14 17 7 8 -8 8 -14 -1 -23z m-961 -4 c69 -3 128 -31 152
-72 9 -17 17 -32 17 -35 0 -13 -64 -36 -74 -28 -22 18 -122 53 -161 56 -32 2
-43 9 -58 33 l-18 31 28 15 c15 8 35 13 43 9 8 -3 40 -7 71 -9z m-181 -14 c13
-9 13 -11 0 -20 -20 -13 -47 -13 -56 1 -7 11 12 29 31 29 6 0 17 -5 25 -10z
m-3203 -81 c4 -16 8 -17 14 -7 5 7 9 8 9 2 0 -6 -9 -19 -19 -28 -18 -16 -20
-16 -35 5 -11 17 -13 26 -4 36 15 19 29 16 35 -8z m2821 -47 c2 -7 -2 -10 -12
-6 -9 3 -16 11 -16 16 0 13 23 5 28 -10z m-5126 -164 c30 -24 102 -79 159
-122 109 -83 129 -102 129 -123 0 -7 -48 -72 -106 -144 -59 -72 -129 -168
-157 -213 -56 -91 -64 -98 -92 -89 -50 15 -323 238 -331 270 -15 59 269 463
326 463 9 0 41 -19 72 -42z m4043 -116 c-3 -3 -11 0 -18 7 -9 10 -8 11 6 5 10
-3 15 -9 12 -12z m3818 -36 c33 -30 38 -39 36 -73 -2 -21 1 -45 6 -53 12 -19
14 -50 3 -56 -4 -3 -8 -14 -8 -24 0 -11 -16 -28 -41 -43 -35 -21 -38 -25 -20
-30 29 -7 28 -53 -1 -68 -13 -7 -26 -16 -29 -22 -4 -5 -13 -6 -20 -1 -8 4 -22
9 -32 9 -26 2 -37 17 -40 52 -2 29 -3 30 -59 32 -35 1 -58 -2 -58 -8 0 -6 -5
-11 -11 -11 -6 0 -22 -9 -36 -20 -15 -12 -41 -20 -62 -20 -33 0 -37 3 -49 40
-14 47 -15 63 -3 56 11 -7 31 38 31 70 0 19 8 28 35 40 19 7 49 34 67 58 42
56 58 66 138 87 93 25 110 23 153 -15z m-3653 -78 c0 -6 -6 -5 -15 2 -8 7 -15
14 -15 16 0 2 7 1 15 -2 8 -4 15 -11 15 -16z m3127 -4 c-9 -9 -28 6 -21 18 4
6 10 6 17 -1 6 -6 8 -13 4 -17z m1563 -489 c-6 -8 -19 -13 -28 -13 -9 0 -23
-1 -31 -3 -26 -8 -22 20 6 34 34 18 72 5 53 -18z m-132 -48 c14 -16 18 -125 6
-137 -13 -13 -64 0 -64 16 0 14 -37 19 -112 15 -36 -3 -38 -1 -38 26 0 27 19
46 85 81 28 16 110 15 123 -1z m-604 -12 c3 -8 1 -15 -4 -15 -5 0 -7 -6 -4
-13 6 -17 -25 -56 -32 -39 -3 6 -14 12 -25 12 -20 0 -26 15 -9 25 6 4 8 10 5
15 -3 4 7 13 22 18 38 14 40 14 47 -3z m-190 -17 c-5 -8 -2 -9 9 -5 24 9 22
-16 -3 -38 -18 -16 -21 -17 -44 -1 -37 24 -21 50 32 55 8 1 10 -4 6 -11z
m-3451 -135 c-7 -2 -19 -2 -25 0 -7 3 -2 5 12 5 14 0 19 -2 13 -5z m87 -14 c0
-6 -5 -19 -10 -29 -9 -17 -14 -18 -38 -8 -44 19 -47 26 -11 36 46 14 59 14 59
1z m-857 -66 c-5 -12 -3 -14 7 -8 9 6 11 4 5 -4 -5 -9 -11 -9 -17 -3 -6 6 -7
15 -4 21 11 17 16 13 9 -6z m685 -14 c-2 -6 -8 -10 -13 -10 -5 0 -11 4 -13 10
-2 6 4 11 13 11 9 0 15 -5 13 -11z m-4771 -384 c12 -22 20 -41 18 -43 -6 -7
-64 62 -65 76 0 24 25 6 47 -33z m98 -45 c3 -5 1 -10 -4 -10 -6 0 -11 5 -11
10 0 6 2 10 4 10 3 0 8 -4 11 -10z m-95 -26 c0 -8 -4 -12 -10 -9 -5 3 -10 10
-10 16 0 5 5 9 10 9 6 0 10 -7 10 -16z m55 -24 c0 -22 -39 -19 -43 3 -3 15 1
18 20 15 12 -2 23 -10 23 -18z m4995 -441 c0 -18 -10 -8 -25 24 l-16 32 21
-24 c11 -13 20 -27 20 -32z m50 -93 c0 -20 0 -20 -13 -1 -8 11 -17 29 -21 39
-7 19 -6 19 14 1 11 -10 20 -27 20 -39z m1577 48 c-3 -3 -20 -10 -39 -14 -18
-5 -43 -12 -56 -16 -18 -5 -21 -3 -16 9 3 9 13 17 22 19 30 7 95 8 89 2z m-54
-55 c20 -5 37 -14 37 -19 0 -6 6 -10 13 -10 15 0 62 -68 53 -77 -3 -3 -17 4
-30 16 -14 13 -30 20 -36 16 -6 -4 -19 0 -28 8 -9 9 -31 23 -47 31 -17 9 -25
16 -18 16 7 0 10 7 7 15 -7 18 -1 18 49 4z m102 -14 l30 -25 -37 21 c-21 11
-38 23 -38 25 0 10 17 2 45 -21z m-3894 -8 c9 -7 14 -18 11 -26 -3 -8 0 -11 7
-7 6 4 17 4 24 -1 6 -4 17 -8 23 -9 6 -1 24 -10 38 -19 19 -12 23 -20 15 -25
-7 -5 2 -11 22 -15 44 -9 170 -86 162 -98 -3 -6 -1 -7 6 -3 11 7 44 -17 35
-27 -3 -2 11 -8 31 -11 19 -4 35 -11 35 -16 0 -6 6 -10 13 -10 15 0 156 -89
142 -90 -5 -1 8 -9 30 -18 103 -43 272 -161 297 -205 7 -14 5 -22 -9 -32 -10
-7 -18 -19 -18 -27 0 -7 -7 -14 -16 -16 -10 -2 -16 3 -15 12 0 8 -1 14 -4 14
-3 -1 -15 4 -27 11 -13 6 -23 8 -23 3 0 -6 10 -13 23 -16 21 -7 21 -7 2 -15
-25 -10 -45 -3 -45 14 0 10 -10 12 -35 8 -31 -5 -35 -3 -35 16 0 11 -4 22 -10
22 -5 1 -14 3 -20 4 -5 1 -16 3 -22 4 -9 1 -8 4 2 11 13 8 12 10 -2 10 -12 0
-18 8 -18 21 0 17 -4 20 -24 15 -15 -4 -28 0 -37 10 -8 10 -21 13 -36 9 -13
-3 -33 -1 -44 5 -16 9 -18 14 -8 26 6 8 20 12 29 9 22 -7 38 44 18 56 -8 6
-14 3 -16 -6 -5 -22 -21 -18 -32 8 l-9 22 0 -23 c-1 -15 -6 -22 -13 -19 -7 2
-12 10 -10 16 1 7 -2 9 -8 6 -14 -9 -41 25 -35 43 2 7 -4 12 -14 12 -11 0 -21
5 -23 12 -2 6 -21 11 -41 10 -34 -1 -38 2 -57 44 -15 34 -24 45 -36 40 -8 -3
-25 -1 -37 6 -30 16 -79 10 -95 -13 -19 -27 -30 -24 -29 9 1 15 0 60 -1 100
-2 60 -5 72 -19 72 -26 0 -83 43 -83 63 0 20 18 22 41 4z m2369 -173 c0 -8 19
-35 42 -60 29 -32 38 -48 30 -56 -16 -16 -31 -1 -63 68 -32 70 -34 78 -19 69
6 -3 10 -13 10 -21z m-4663 -171 c2 -6 -4 -13 -14 -17 -10 -3 -29 -10 -42 -16
l-25 -11 20 23 c33 39 53 46 61 21z m1478 -213 c3 -5 1 -10 -4 -10 -6 0 -11 5
-11 10 0 6 2 10 4 10 3 0 8 -4 11 -10z m-45 -24 c0 -22 17 -28 40 -16 16 9 20
8 20 -6 0 -10 -3 -14 -7 -11 -3 4 -12 2 -20 -4 -10 -9 -17 -8 -28 1 -12 10
-16 9 -21 -4 -8 -20 -24 -21 -24 -1 0 8 5 15 11 15 6 0 9 6 6 14 -6 15 1 26
15 26 4 0 8 -6 8 -14z m-180 -81 c0 -21 35 -44 56 -39 13 4 32 -4 51 -20 29
-24 31 -25 47 -7 18 20 12 31 -16 31 -10 0 -18 5 -18 10 0 13 61 13 94 0 28
-10 35 -30 11 -30 -9 0 -15 -9 -15 -21 0 -18 -4 -20 -25 -15 -28 7 -29 7 -15
-29 7 -19 7 -33 -2 -48 -6 -12 -21 -49 -32 -82 -23 -66 -40 -76 -75 -46 -18
16 -34 19 -89 16 -37 -2 -73 -4 -79 -4 -17 -1 -16 -31 1 -53 8 -12 16 -14 23
-7 13 13 63 -9 63 -27 0 -7 5 -14 11 -16 7 -2 9 -13 5 -24 -9 -28 -76 -45
-122 -31 -28 9 -35 16 -40 46 -3 20 -12 41 -19 46 -42 34 -72 135 -40 135 8 0
15 3 15 8 0 4 10 18 23 32 33 38 79 138 64 143 -9 3 -9 10 0 30 14 31 29 34
55 10 20 -18 28 -15 33 14 2 10 4 20 5 23 1 9 30 -33 30 -45z m130 7 c0 -13
-3 -12 -20 3 -11 10 -17 22 -14 27 8 12 34 -11 34 -30z m105 8 c3 -5 2 -10 -4
-10 -5 0 -13 5 -16 10 -3 6 -2 10 4 10 5 0 13 -4 16 -10z m3875 -57 c0 -15
-48 -68 -55 -61 -4 3 3 20 16 37 22 29 39 40 39 24z m-509 -126 c-1 -12 -15
-9 -19 4 -3 6 1 10 8 8 6 -3 11 -8 11 -12z m-4026 -87 c8 -13 -15 -13 -35 0
-12 8 -11 10 7 10 12 0 25 -4 28 -10z m9 -26 c24 -9 19 -24 -6 -23 -13 1 -31
-2 -40 -6 -13 -5 -18 -2 -18 10 0 11 5 15 15 11 8 -3 15 -1 15 4 0 11 11 13
34 4z m86 -14 c0 -5 -2 -10 -4 -10 -3 0 -8 5 -11 10 -3 6 -1 10 4 10 6 0 11
-4 11 -10z m2946 -55 c22 -21 46 -35 62 -36 24 0 25 -1 7 -8 -16 -7 -10 -10
29 -19 54 -11 80 -6 72 14 -3 8 -4 14 -2 14 3 0 11 3 19 6 10 4 15 -2 15 -21
0 -14 2 -29 6 -32 3 -3 47 -7 98 -8 125 -3 122 -3 110 -18 -12 -14 -14 -132
-12 -494 1 -257 3 -251 -60 -218 -32 17 -33 20 -49 140 -10 81 -1 320 13 343
4 7 7 35 8 64 0 31 6 57 14 66 10 9 14 29 12 56 l-3 41 -65 5 c-99 8 -148 1
-155 -20 -6 -19 22 -100 34 -100 4 0 6 -14 3 -30 -3 -25 -7 -28 -18 -19 -12 9
-14 5 -13 -27 5 -138 -109 -247 -241 -231 -65 8 -106 32 -141 84 -39 56 -50
143 -25 193 20 41 20 40 -5 40 -18 0 -20 5 -17 42 l3 41 190 4 c198 4 220 6
210 23 -4 6 -56 10 -123 11 -64 0 -135 4 -157 8 l-40 9 50 2 c28 1 76 1 107 0
42 -1 62 3 74 14 14 14 14 16 0 16 -9 0 -16 5 -16 10 0 6 -11 15 -25 20 -24 9
-32 29 -18 43 9 10 9 10 49 -28z m-3126 21 c0 -3 -4 -8 -10 -11 -5 -3 -10 -1
-10 4 0 6 5 11 10 11 6 0 10 -2 10 -4z m153 -63 c4 -18 4 -33 1 -33 -7 0 -34
66 -34 82 0 24 27 -16 33 -49z m123 -25 c23 -28 24 -34 10 -36 -18 -4 -66 36
-66 56 0 22 28 12 56 -20z m4864 -82 c35 -40 35 -40 5 -19 -36 25 -105 89
-105 97 0 13 67 -40 100 -78z m-2283 59 c-21 -11 -34 -12 -48 -4 -11 5 -23 8
-27 6 -4 -3 -16 -1 -27 4 -13 5 7 8 55 8 72 1 74 0 47 -14z m-849 -6 c6 -1 12
-7 12 -12 0 -5 12 -6 28 -2 68 19 112 9 112 -25 0 -8 16 -9 53 -5 52 7 72 -1
77 -30 1 -5 7 -8 14 -6 42 14 49 14 44 0 -18 -47 -20 -61 -8 -54 14 8 8 -89
-9 -168 -6 -23 -10 -61 -9 -85 1 -64 -9 -61 -17 5 -9 76 -33 126 -65 133 -14
3 -38 25 -55 47 -16 23 -33 42 -37 42 -4 1 -17 -18 -29 -41 -28 -54 -24 -162
9 -227 27 -55 27 -66 2 -93 -10 -12 -17 -24 -15 -28 6 -9 -28 -40 -82 -75 -23
-15 -45 -36 -48 -46 -8 -24 -43 -25 -61 -1 -13 16 -15 16 -25 0 -14 -25 -27
-22 -41 7 -6 14 -17 25 -25 25 -16 0 -40 47 -29 57 4 4 16 -3 28 -17 l20 -25
-6 35 c-10 55 -36 73 -111 78 -68 5 -99 22 -77 44 18 18 15 25 -14 31 -20 3
-28 -1 -36 -19 -6 -13 -19 -26 -30 -30 -10 -3 -29 -17 -43 -31 -22 -25 -24
-25 -41 -8 -12 12 -20 37 -22 74 -4 62 -9 72 -22 52 -6 -11 -9 -8 -13 10 -4
23 -4 22 -6 -3 -1 -25 -21 -42 -21 -18 0 6 -11 3 -24 -5 -28 -19 -28 -11 -3
47 19 41 33 54 40 36 3 -7 6 -3 6 10 1 12 -4 21 -11 20 -7 -2 -13 2 -13 7 -1
6 -7 23 -14 39 -6 16 -10 36 -7 45 2 9 7 28 10 44 5 22 12 27 36 27 16 0 32 5
35 10 3 6 31 10 60 10 51 0 57 -3 99 -45 44 -43 92 -62 80 -31 -4 11 7 17 43
22 26 4 39 10 28 12 -11 2 -36 11 -55 20 -35 16 -35 16 -10 23 14 4 21 7 15 8
-5 1 -17 14 -27 30 -9 17 -26 31 -40 33 l-23 3 26 27 26 26 154 -3 c85 -2 160
-4 167 -6z m2892 -69 c17 -16 35 -30 40 -30 6 0 10 -6 10 -12 0 -7 11 -26 25
-42 23 -27 25 -46 4 -46 -5 0 -9 7 -9 15 0 14 -54 75 -66 75 -10 0 -34 28 -34
39 0 6 -4 11 -10 11 -5 0 -10 5 -10 10 0 18 19 11 50 -20z m130 16 c0 -3 -4
-8 -10 -11 -5 -3 -10 -1 -10 4 0 6 5 11 10 11 6 0 10 -2 10 -4z m-4536 -54
c-4 -18 -10 -29 -15 -27 -4 3 -3 19 3 36 13 38 20 32 12 -9z m2206 18 c0 -5
-4 -10 -9 -10 -6 0 -13 5 -16 10 -3 6 1 10 9 10 9 0 16 -4 16 -10z m2016 -53
c5 -15 71 -20 79 -7 10 17 37 11 62 -12 18 -16 34 -22 60 -19 32 2 35 1 28
-16 -5 -10 -8 -28 -8 -40 1 -27 -1 -27 -30 -9 -12 8 -42 17 -66 19 -36 4 -44
1 -48 -14 -7 -24 -34 -24 -61 -1 -12 11 -35 17 -56 17 -21 -1 -33 2 -28 7 13
13 3 54 -19 74 -10 9 -19 27 -19 39 l0 22 51 -24 c27 -13 52 -30 55 -36z
m-1323 10 c-2 -4 -3 -11 -3 -17 0 -5 -17 -10 -37 -9 -34 1 -35 2 -13 9 14 4
21 8 17 9 -5 1 -6 5 -3 10 7 10 42 8 39 -2z m742 3 c3 -5 2 -10 -4 -10 -5 0
-13 5 -16 10 -3 6 -2 10 4 10 5 0 13 -4 16 -10z m-3880 -39 c3 -5 1 -12 -5
-16 -5 -3 -10 1 -10 9 0 18 6 21 15 7z m5520 -23 c17 -10 45 -18 63 -18 19 0
49 -7 68 -16 30 -14 34 -21 34 -54 0 -37 -20 -70 -42 -70 -22 0 -110 -64 -118
-85 -6 -16 -19 -24 -44 -27 -32 -3 -35 -2 -35 22 0 14 -3 83 -7 153 l-6 128
28 -7 c16 -4 43 -16 59 -26z m-1567 -15 c6 -9 12 -23 12 -31 0 -9 7 -13 18
-10 10 3 24 -2 31 -10 12 -12 12 -16 -1 -23 -18 -10 -13 -55 6 -62 9 -4 11 3
8 19 -5 30 9 31 26 3 11 -18 9 -79 -3 -79 -13 0 -55 54 -57 73 -5 34 -15 45
-48 52 -19 4 -28 11 -23 18 5 9 3 9 -8 0 -11 -9 -16 -7 -26 13 -6 14 -7 24 -1
24 5 0 6 6 1 13 -4 6 -8 17 -9 24 -3 16 58 -3 74 -24z m266 -8 c25 -19 36 -19
36 0 0 21 12 19 33 -6 11 -12 25 -18 34 -15 8 4 28 -5 45 -19 34 -29 32 -31
-8 -10 -16 8 -41 15 -56 15 -16 0 -28 6 -28 13 0 9 -3 8 -9 -2 -15 -24 -80 1
-81 32 0 11 13 8 34 -8z m496 -5 c0 -5 -4 -10 -10 -10 -5 0 -10 5 -10 10 0 6
5 10 10 10 6 0 10 -4 10 -10z m-4515 -30 c-3 -5 -13 -10 -21 -10 -8 0 -14 5
-14 10 0 6 9 10 21 10 11 0 17 -4 14 -10z m805 -3 c0 -7 -7 -22 -15 -33 -12
-16 -14 -17 -15 -2 0 23 11 48 21 48 5 0 9 -6 9 -13z m3574 -22 c-8 -19 -32
-26 -40 -13 -4 7 -2 14 4 16 7 2 12 11 12 19 0 12 3 13 14 3 8 -6 12 -18 10
-25z m-4404 -9 c0 -3 -4 -8 -10 -11 -5 -3 -10 -1 -10 4 0 6 5 11 10 11 6 0 10
-2 10 -4z m2005 -46 c7 -11 -33 -49 -52 -50 -20 0 -23 16 -7 38 16 23 48 29
59 12z m2415 -14 c0 -3 -4 -8 -10 -11 -5 -3 -10 -1 -10 4 0 6 5 11 10 11 6 0
10 -2 10 -4z m-15 -36 c-3 -5 -14 -10 -23 -9 -14 0 -13 2 3 9 27 11 27 11 20
0z m-146 -9 c9 -6 10 -11 2 -15 -13 -8 -31 1 -31 15 0 11 11 11 29 0z m-3559
-13 c0 -7 -7 -22 -15 -32 -12 -16 -15 -17 -15 -4 0 24 11 48 21 48 5 0 9 -6 9
-12z m4750 -50 c0 -18 -2 -20 -9 -8 -6 8 -7 18 -5 22 9 14 14 9 14 -14z
m-4674 -160 c-9 -232 -16 -312 -29 -299 -15 15 -9 299 8 389 8 42 15 78 15 80
0 1 3 2 7 2 3 0 3 -78 -1 -172z m-382 83 c-2 -20 -9 -63 -15 -95 -6 -33 -9
-78 -7 -100 2 -23 -1 -43 -7 -46 -14 -7 -23 229 -10 254 28 55 47 48 39 -13z
m3658 -12 c12 -19 25 -26 54 -27 20 -1 48 -9 61 -18 22 -14 24 -20 19 -59 -8
-49 3 -57 66 -54 18 1 66 -2 105 -6 66 -7 73 -6 80 11 3 11 11 22 17 26 8 5 7
8 -1 8 -8 0 -8 6 0 26 11 23 16 25 52 19 22 -3 46 -12 55 -19 10 -9 60 -15
154 -19 134 -5 139 -6 167 -33 22 -22 43 -29 91 -35 70 -8 77 -6 58 16 -7 8
-9 22 -6 31 5 14 24 15 141 12 74 -2 135 -2 135 0 0 2 -7 16 -15 31 -17 33
-11 41 44 60 51 17 61 14 77 -24 7 -19 14 -36 14 -39 0 -11 -34 -15 -47 -5
-18 16 -29 3 -13 -16 7 -8 24 -15 39 -15 40 0 51 -18 51 -83 0 -79 -11 -97
-59 -97 -39 0 -49 12 -75 90 -3 11 -6 9 -11 -7 -9 -27 -12 -28 -32 -7 -14 14
-17 13 -35 -5 -15 -17 -31 -21 -88 -21 -38 0 -93 -6 -122 -13 -37 -10 -115
-13 -265 -12 -116 1 -217 -1 -224 -5 -7 -5 -24 -4 -38 1 -18 7 -45 5 -96 -7
-38 -10 -99 -18 -135 -18 l-65 -1 -6 42 c-5 44 -32 83 -55 83 -8 0 -19 9 -26
20 -7 11 -23 20 -36 20 -15 0 -26 7 -29 19 -2 10 -20 23 -39 29 -29 9 -34 8
-34 -6 0 -13 -4 -12 -22 6 -17 17 -20 24 -10 34 7 7 12 17 12 22 0 6 -5 5 -12
-2 -7 -7 -16 -12 -22 -12 -5 0 -6 3 -3 7 4 3 -1 12 -11 19 -25 18 -10 26 26
13 19 -6 32 -18 32 -28 0 -11 9 -17 27 -19 15 -1 32 -7 37 -12 14 -14 23 -12
30 5 3 9 -8 30 -28 53 -18 20 -36 51 -40 67 l-7 30 23 -25 c13 -14 31 -37 40
-51z m-174 43 c6 -18 -15 -14 -22 4 -4 10 -1 14 6 12 6 -2 14 -10 16 -16z
m-1138 -9 c4 -4 4 -17 0 -29 -7 -19 -17 -21 -111 -23 -57 -1 -105 -4 -108 -7
-2 -2 49 -4 115 -4 65 0 125 -4 133 -9 9 -6 11 -18 7 -35 l-6 -26 -168 6
c-176 7 -210 15 -182 48 7 9 20 16 29 16 14 0 17 7 13 31 -3 17 0 34 6 38 15
9 263 4 272 -6z m1164 8 c3 -5 -1 -14 -8 -20 -12 -10 -13 -8 -9 8 6 23 9 25
17 12z m1546 -22 c0 -24 -20 -35 -31 -18 -16 26 -11 48 11 42 11 -3 20 -14 20
-24z m-2166 -19 c-1 -8 -5 -23 -9 -32 -6 -16 -1 -18 35 -18 23 0 50 5 61 11
15 7 36 5 87 -11 88 -29 142 -51 149 -63 3 -5 -11 -25 -32 -43 -27 -23 -36
-37 -31 -50 6 -15 10 -14 34 9 16 15 35 27 43 27 17 0 147 -45 156 -54 4 -3
19 -6 34 -6 21 0 35 10 60 45 18 24 41 47 52 51 22 7 90 -20 130 -53 16 -13
39 -26 53 -29 35 -9 29 -32 -20 -75 -24 -22 -56 -59 -70 -84 -31 -53 -56 -59
-56 -15 0 17 -6 31 -12 31 -42 5 -55 7 -75 13 -14 5 -26 1 -35 -10 -7 -9 -29
-31 -48 -50 l-34 -33 39 -35 c22 -19 54 -37 70 -40 19 -4 52 -27 85 -61 30
-30 61 -61 69 -67 7 -7 32 -31 55 -53 23 -22 54 -48 69 -58 15 -9 27 -24 27
-31 0 -8 21 -35 47 -60 46 -46 47 -46 65 -26 24 25 54 25 199 1 63 -11 138
-22 167 -25 29 -4 97 -22 150 -41 97 -33 272 -75 316 -75 26 0 79 -37 71 -50
-6 -9 63 -70 79 -70 5 0 28 -12 52 -27 49 -31 61 -62 47 -128 l-9 -39 -17 37
c-24 50 -38 47 -35 -9 1 -32 6 -48 17 -52 24 -9 40 -34 41 -64 0 -14 8 -40 17
-57 10 -16 15 -33 11 -37 -4 -3 -47 23 -95 59 -48 35 -116 83 -151 105 -55 36
-67 39 -88 30 -18 -8 -48 -8 -115 0 -124 15 -176 52 -107 76 24 9 44 3 163
-45 39 -16 65 -20 65 -12 0 9 -54 53 -64 53 -3 0 -41 23 -84 50 -72 46 -84 50
-139 50 -63 0 -79 8 -106 53 -21 32 -45 34 -80 7 -40 -32 -69 -26 -103 21 -47
65 -74 89 -156 138 l-38 23 0 -22 c0 -14 27 -50 71 -96 61 -62 70 -76 59 -89
-15 -18 -36 -19 -47 -2 -21 32 -164 158 -173 152 -6 -3 -38 21 -72 54 -52 51
-66 59 -88 54 -14 -3 -30 -10 -37 -15 -8 -7 -17 0 -28 21 -8 17 -19 31 -24 31
-4 0 -13 11 -19 25 -6 14 -16 25 -21 25 -10 0 -22 10 -114 96 -27 24 -52 44
-57 44 -5 0 -11 9 -15 19 -3 11 -14 23 -24 26 -12 4 -21 19 -25 45 -7 43 -49
100 -74 100 -20 1 -62 34 -62 49 0 6 -10 16 -22 22 -13 7 -26 17 -30 23 -4 6
-24 9 -46 8 -23 -2 -65 7 -107 23 -52 19 -70 23 -76 13 -4 -7 -9 -10 -11 -8
-32 49 -41 125 -31 254 l6 67 31 -3 c20 -2 31 -8 30 -18z m-2714 -40 c5 0 14
8 19 18 10 16 10 16 11 0 0 -28 -4 -33 -22 -31 -11 2 -18 -4 -18 -13 0 -11 6
-13 19 -9 23 7 38 -12 22 -28 -7 -7 -7 -14 1 -25 9 -10 9 -18 0 -32 -8 -14 -8
-20 0 -22 19 -7 -2 -28 -28 -28 -31 0 -32 -27 -1 -33 16 -3 14 -5 -10 -6 -26
-1 -30 2 -26 18 6 24 -3 29 -67 35 -76 8 -74 16 4 16 50 0 67 3 64 13 -4 10
-41 16 -110 18 -10 0 -18 4 -18 10 0 5 30 9 66 9 48 0 65 3 61 13 -4 12 -10
14 -59 16 -16 0 -28 6 -28 12 0 6 9 9 20 6 11 -3 22 -1 25 3 3 4 15 6 26 3 16
-4 20 -2 17 8 -3 8 -12 13 -22 11 -18 -3 -21 16 -5 38 9 12 10 12 5 -4 -5 -14
-2 -17 10 -12 8 3 18 6 20 6 2 0 5 8 5 18 1 11 3 9 6 -5 2 -13 8 -23 13 -23z
m3985 -28 c-3 -3 -11 0 -18 7 -9 10 -8 11 6 5 10 -3 15 -9 12 -12z m-3267 -53
c2 -54 1 -60 -15 -57 -10 2 -17 9 -16 16 2 6 4 32 5 57 2 68 23 56 26 -16z
m620 32 c82 -5 82 -4 82 -34 0 -16 -5 -38 -11 -50 -7 -11 -8 -22 -3 -24 20 -7
38 -22 33 -27 -3 -3 -23 4 -44 15 -55 30 -57 30 -233 27 -32 0 -38 9 -19 30
10 10 17 26 17 35 0 17 40 33 63 24 7 -3 24 1 37 8 14 7 29 10 35 6 5 -5 25
-9 43 -10z m3332 -14 c0 -9 -3 -8 -9 1 -4 7 -12 12 -17 11 -18 -3 -25 1 -19
11 8 13 45 -6 45 -23z m-5395 -18 c9 -28 -9 -46 -30 -29 -18 15 -20 36 -2 43
21 9 26 7 32 -14z m2910 -12 c19 -10 19 -10 0 -18 -11 -4 -34 -8 -52 -8 -34
-1 -53 -18 -33 -31 17 -11 3 -17 -62 -24 l-58 -7 6 30 c6 29 4 31 -22 31 -54
0 -104 13 -104 26 0 16 294 17 325 1z m-1050 -77 c50 0 78 -32 38 -43 -10 -3
66 -3 169 -1 103 2 200 7 215 11 27 7 27 8 -12 13 l-40 6 53 12 c70 16 194 16
214 0 26 -22 79 -110 74 -123 -6 -17 -82 -25 -363 -39 -320 -15 -331 -14 -383
34 -27 25 -64 45 -110 60 -39 12 -70 28 -70 35 0 8 8 11 20 8 14 -4 20 0 20
11 0 8 10 18 23 21 82 19 103 21 115 8 7 -7 24 -13 37 -13z m-287 -82 c-3 -7
-19 -18 -36 -25 -31 -13 -31 -13 -20 12 7 17 19 25 35 25 15 0 23 -5 21 -12z
m2825 -98 c-3 -11 -9 -17 -14 -14 -14 8 -10 34 5 34 9 0 12 -7 9 -20z m-73
-47 c36 -14 82 -30 102 -37 20 -6 40 -15 44 -19 4 -4 13 -7 20 -7 7 0 28 -10
46 -23 50 -33 216 -65 429 -82 179 -14 239 -25 239 -43 0 -17 -25 -32 -55 -32
-17 0 -47 -8 -67 -19 -33 -16 -50 -17 -160 -10 -309 20 -353 28 -552 103 -82
31 -82 31 -66 51 7 9 10 18 7 21 -3 3 -10 -4 -17 -15 -15 -30 -32 -26 -65 13
-16 19 -34 32 -41 29 -6 -2 -15 0 -18 6 -7 11 13 61 26 61 4 0 8 6 8 14 0 8 6
17 13 19 13 6 13 6 107 -30z m170 -38 c12 -15 11 -15 -16 -4 -41 18 -54 29
-54 46 0 11 6 10 28 -6 16 -11 35 -27 42 -36z m-5308 10 c-2 -11 -4 -28 -6
-39 -4 -28 -20 -32 -161 -45 -178 -16 -248 -25 -482 -56 -188 -26 -250 -27
-227 -6 10 10 96 30 394 92 299 62 390 78 440 76 39 -2 45 -5 42 -22z m5629
-2 c13 -16 12 -17 -3 -4 -10 7 -18 15 -18 17 0 8 8 3 21 -13z m-61 -12 c0 -6
-5 -13 -10 -16 -6 -4 -8 -11 -5 -16 4 -5 -3 -9 -14 -9 -11 0 -23 5 -26 10 -3
6 3 10 14 10 12 0 21 7 21 15 0 8 5 15 10 15 6 0 10 -4 10 -9z m-2818 -191
l21 -19 -31 2 c-20 1 -33 8 -36 20 -6 23 19 22 46 -3z m-2179 -68 c1 -48 -6
-60 -28 -42 -18 15 -20 71 -3 88 18 18 29 1 31 -46z m301 40 c6 -19 -19 -82
-33 -82 -15 0 -41 37 -47 68 -6 32 -6 32 34 32 31 0 42 -5 46 -18z m-424 -29
c-8 -3 -18 -11 -22 -17 -5 -7 -8 -4 -8 7 0 11 7 17 23 16 15 0 17 -2 7 -6z
m503 -43 c-3 -10 0 -28 7 -40 15 -29 10 -32 -29 -17 -31 11 -32 14 -25 52 3
22 8 44 11 48 9 15 41 -24 36 -43z m-1593 -6 c0 -8 -5 -12 -10 -9 -6 4 -8 11
-5 16 9 14 15 11 15 -7z m280 -3 c0 -17 -18 -21 -24 -6 -3 9 0 15 9 15 8 0 15
-4 15 -9z m3086 -6 c9 -22 -14 -45 -45 -46 l-26 -2 28 -4 c33 -5 36 -23 4 -23
-32 0 -87 28 -87 45 0 25 29 37 103 44 10 0 20 -6 23 -14z m-1781 -91 c15 -10
25 -12 25 -5 0 6 5 11 10 11 18 0 10 -39 -9 -45 -11 -3 -22 -12 -25 -20 -6
-17 9 -21 19 -5 12 20 27 10 20 -12 -3 -13 -6 -40 -5 -60 0 -20 -4 -39 -9 -43
-6 -3 -8 -12 -4 -20 3 -8 0 -15 -5 -15 -6 0 -14 9 -17 21 -9 28 -41 20 -38 -9
4 -29 -2 -28 -40 9 -28 27 -29 30 -9 24 25 -7 55 16 47 37 -3 8 -20 18 -38 24
-37 11 -42 35 -9 49 12 5 27 24 33 42 12 37 20 40 54 17z m1042 -46 c12 -24
31 -71 43 -105 12 -34 38 -80 57 -103 61 -71 13 -95 -66 -32 -77 62 -127 216
-86 262 10 11 21 20 24 20 4 0 16 -19 28 -42z m1053 8 c0 -9 -8 -12 -25 -8
-37 7 -41 22 -6 22 20 0 31 -5 31 -14z m-2893 -12 c-3 -3 -12 -4 -19 -1 -8 3
-5 6 6 6 11 1 17 -2 13 -5z m3025 -48 c15 -17 28 -39 28 -48 0 -10 7 -18 15
-18 8 0 15 -7 15 -15 0 -8 3 -15 8 -15 15 0 10 -48 -7 -53 -20 -5 -52 5 -54
18 -1 6 -11 11 -22 11 -11 1 -27 4 -36 8 -10 4 -23 6 -30 4 -8 -1 -33 6 -56
17 -41 20 -57 44 -46 71 6 16 23 19 23 5 0 -10 86 35 95 49 9 14 37 -1 67 -34z
m-2861 1 c-8 -8 -11 -7 -11 4 0 20 13 34 18 19 3 -7 -1 -17 -7 -23z m2629 3
c0 -5 -2 -10 -4 -10 -3 0 -8 5 -11 10 -3 6 -1 10 4 10 6 0 11 -4 11 -10z m34
-25 c-4 -8 -13 -15 -20 -15 -12 0 -12 3 -2 15 17 19 29 19 22 0z m542 -182
c33 -76 2 -86 -44 -14 -18 27 -32 56 -32 65 0 16 3 16 31 -1 18 -10 38 -32 45
-50z m-1166 42 c14 -17 -2 -76 -26 -96 -14 -12 -14 -32 2 -73 10 -26 -18 -19
-54 13 -35 33 -37 40 -22 90 18 65 72 100 100 66z m577 -8 c10 -12 25 -21 34
-19 9 2 24 -5 33 -14 16 -16 16 -19 -13 -45 -22 -19 -31 -37 -31 -58 0 -21 -5
-31 -15 -31 -21 0 -35 32 -35 82 l-1 43 -23 -27 c-15 -17 -27 -46 -31 -77 -4
-28 -11 -51 -16 -51 -20 0 -44 55 -42 97 1 43 32 107 56 117 30 12 67 5 84
-17z m1204 -47 c-9 -24 -10 -24 -10 7 -1 17 2 40 7 50 6 15 7 14 10 -7 2 -14
-2 -37 -7 -50z m2826 30 c1 -11 -2 -20 -8 -20 -5 0 -9 9 -9 20 0 11 4 20 8 20
4 0 8 -9 9 -20z m-3360 -76 c-3 -3 -12 -4 -19 -1 -8 3 -5 6 6 6 11 1 17 -2 13
-5z m3848 -114 c3 -5 1 -10 -4 -10 -6 0 -11 5 -11 10 0 6 2 10 4 10 3 0 8 -4
11 -10z m-2989 -40 c8 0 14 -4 14 -9 0 -10 -77 3 -88 14 -4 4 8 5 27 1 18 -3
40 -6 47 -6z m-611 -9 c3 -5 1 -12 -4 -15 -12 -8 -41 3 -41 15 0 12 37 12 45
0z m715 -17 c0 -2 -9 -4 -20 -4 -11 0 -20 4 -20 9 0 5 9 7 20 4 11 -3 20 -7
20 -9z m67 -20 c-3 -3 -12 -4 -19 -1 -8 3 -5 6 6 6 11 1 17 -2 13 -5z m205
-40 c40 -9 96 -18 123 -19 66 -4 445 -135 445 -154 0 -12 -112 -4 -180 12 -61
15 -209 64 -275 91 -16 7 -92 33 -167 57 -142 46 -182 68 -79 43 33 -7 93 -21
133 -30z m2308 -54 c49 -13 100 -53 127 -98 17 -28 23 -53 23 -98 0 -61 -1
-62 -50 -108 -54 -51 -67 -54 -166 -35 -36 7 -69 21 -85 36 -24 22 -25 27 -16
61 8 30 6 45 -8 76 -16 34 -17 44 -6 85 18 68 33 77 136 90 6 0 26 -4 45 -9z
m-4381 -174 c35 -26 60 -25 62 3 1 9 6 1 12 -17 8 -25 15 -32 31 -30 13 2 22
12 24 26 3 21 32 33 32 12 0 -19 77 -46 143 -50 10 0 9 -30 -2 -30 -5 0 -12 6
-14 13 -3 7 -6 4 -6 -7 -1 -12 -6 -16 -16 -12 -19 7 -85 -21 -85 -37 0 -19 80
-67 111 -67 15 0 34 -3 43 -6 20 -8 21 -34 2 -34 -8 0 -18 -9 -21 -21 -6 -18
-41 -39 -66 -39 -5 0 -12 7 -16 16 -3 9 -19 30 -35 47 -15 17 -27 36 -25 41 2
6 -8 20 -23 33 -22 18 -33 20 -62 14 -19 -5 -63 -7 -97 -6 -47 3 -61 0 -61
-11 0 -8 -4 -14 -10 -14 -13 0 -13 17 0 25 16 10 0 33 -20 28 -13 -3 -18 0
-17 14 1 10 -4 17 -12 15 -9 -2 -11 3 -7 13 3 9 -1 18 -9 21 -20 8 -19 44 0
44 8 0 15 4 15 9 0 6 32 17 91 30 3 0 20 -10 38 -23z m3068 -22 c3 -8 1 -20
-6 -27 -12 -12 -131 -19 -131 -7 0 5 15 17 33 29 39 25 95 28 104 5z m350
-210 c-3 -3 -12 -4 -19 -1 -8 3 -5 6 6 6 11 1 17 -2 13 -5z m-464 -31 c38 -19
34 -29 -13 -36 -22 -3 -58 -14 -79 -25 -22 -12 -41 -19 -44 -16 -11 12 8 57
35 79 32 27 45 27 101 -2z m-3033 -31 c0 -2 -5 -12 -10 -23 -17 -30 -80 -23
-80 10 0 12 10 16 45 16 25 0 45 -1 45 -3z m163 -47 c-7 -21 -22 -18 -43 7
-24 31 -16 40 20 22 18 -10 27 -20 23 -29z m136 -24 c14 -9 7 -31 -10 -31 -5
0 -20 -9 -32 -21 -17 -16 -23 -17 -25 -6 -4 21 -42 29 -58 12 -22 -21 -32 -58
-23 -82 6 -17 3 -22 -13 -26 -24 -7 -15 -27 13 -27 26 0 24 -7 -15 -45 -36
-35 -46 -35 -46 -2 0 16 -3 17 -15 7 -8 -7 -15 -18 -15 -25 0 -7 -7 -15 -15
-19 -8 -3 -15 -1 -15 4 0 20 -38 9 -45 -12 -6 -21 -7 -21 -16 10 -6 21 -7 38
-1 45 7 8 5 16 -4 25 -11 10 -14 10 -14 0 0 -7 -6 -2 -14 12 -11 21 -11 27 2
38 10 7 11 12 4 12 -7 0 -12 7 -12 15 0 8 -7 15 -15 15 -13 0 -17 14 -14 48 0
4 6 6 14 4 7 -1 16 2 20 8 5 8 11 8 20 0 21 -18 67 -22 76 -8 7 10 9 9 9 -3 0
-12 11 -18 37 -21 31 -4 42 0 65 24 15 15 38 28 51 28 12 0 27 4 33 9 7 8 25
14 54 20 3 0 11 -3 19 -8z m1785 -17 c22 -9 21 -61 -1 -68 -31 -8 -196 8 -200
21 -4 10 52 33 112 46 31 7 72 8 89 1z m-1842 -96 c-15 -15 -26 -4 -18 18 5
13 9 15 18 6 9 -9 9 -15 0 -24z m1768 -46 c0 -5 -11 -19 -25 -32 -23 -22 -27
-23 -42 -8 -24 25 -9 48 32 48 19 0 35 -4 35 -8z m99 -59 c5 -10 11 -33 14
-50 7 -42 -10 -43 -48 -3 -28 29 -28 30 -10 50 22 25 32 25 44 3z m726 -23 c3
-5 -10 -24 -29 -42 -18 -18 -37 -48 -41 -65 -11 -52 -27 -40 -20 15 10 72 13
77 48 89 17 5 33 11 34 12 1 0 5 -3 8 -9z m1746 -1 c50 -15 108 -64 125 -105
19 -44 18 -116 -2 -156 -8 -18 -32 -44 -52 -58 -31 -20 -48 -24 -104 -23 -111
2 -177 49 -150 107 8 18 7 33 -3 62 -20 55 -18 83 8 129 30 53 94 69 178 44z
m194 -59 c0 -18 -6 -26 -23 -28 -13 -2 -25 3 -28 12 -10 26 4 48 28 44 17 -2
23 -10 23 -28z m-1875 -190 c12 -28 11 -32 -19 -60 -33 -32 -39 -50 -17 -50
22 0 25 -46 5 -77 -11 -15 -19 -23 -19 -16 0 20 -30 43 -56 43 -53 0 -68 134
-18 167 13 8 28 12 33 9 5 -4 12 -2 16 4 3 5 19 10 34 10 22 0 31 -7 41 -30z
m-3470 -117 c-8 -3 -46 -21 -85 -40 -66 -33 -131 -51 -120 -33 3 5 22 14 43
21 20 6 40 16 43 21 6 10 93 36 119 36 13 0 13 0 0 -5z m-223 -89 c-3 -3 -12
-4 -19 -1 -8 3 -5 6 6 6 11 1 17 -2 13 -5z m418 -24 c-3 -5 -15 -10 -26 -10
-11 0 -41 -11 -67 -25 -52 -27 -112 -43 -112 -29 0 13 71 56 105 65 46 11 107
10 100 -1z m3303 -54 c-4 -29 -38 -31 -72 -5 -31 24 -25 36 19 41 37 4 57 -9
53 -36z m502 -25 c0 -48 -11 -57 -35 -31 -15 17 -16 24 -7 45 18 40 42 32 42
-14z m-3831 -92 c30 -32 11 -50 -48 -47 -48 3 -81 22 -81 48 0 11 13 16 54 18
45 3 58 -1 75 -19z m-133 -36 c-3 -8 -6 -17 -6 -19 0 -2 -4 -4 -10 -4 -5 0
-10 11 -10 25 0 18 4 23 16 18 8 -3 13 -12 10 -20z m3996 -55 c11 -15 18 -41
18 -75 0 -28 4 -63 10 -77 5 -14 7 -39 4 -55 -5 -24 -11 -29 -31 -26 -36 4
-44 23 -37 88 5 51 4 57 -13 57 -31 0 -43 21 -43 73 l0 50 37 -6 c22 -4 45
-16 55 -29z m-3708 -23 c-3 -7 -16 -11 -29 -10 -16 2 -22 -1 -19 -10 7 -16
-27 -29 -36 -14 -6 8 -9 8 -14 0 -9 -13 -65 -14 -86 -1 -17 10 -17 10 30 31
43 20 161 23 154 4z m-217 -51 c-3 -3 -12 -4 -19 -1 -8 3 -5 6 6 6 11 1 17 -2
13 -5z m-47 -24 c0 -5 -2 -10 -4 -10 -3 0 -8 5 -11 10 -3 6 -1 10 4 10 6 0 11
-4 11 -10z m5256 -275 l-11 -70 -3 49 c-2 28 2 60 9 73 7 13 13 22 14 20 2 -1
-2 -33 -9 -72z m-1273 0 c33 -7 61 -16 64 -19 3 -2 20 -50 39 -105 18 -56 40
-111 48 -124 15 -22 56 -244 56 -299 0 -70 -128 -61 -197 14 -29 30 -53 89
-53 128 0 29 18 54 54 75 13 7 0 10 -51 12 -37 1 -86 8 -108 15 -47 16 -85 66
-85 114 0 37 36 86 81 110 17 8 29 23 29 34 0 16 43 61 59 60 3 -1 32 -7 64
-15z m580 -195 c-3 -13 1 -22 11 -26 17 -7 48 -30 90 -69 12 -11 45 -38 72
-59 27 -22 74 -63 104 -91 56 -53 140 -95 190 -95 26 0 162 -71 256 -134 27
-17 52 -26 70 -24 24 3 31 -3 50 -37 12 -22 25 -50 29 -62 6 -21 3 -23 -35
-23 -37 0 -43 4 -73 47 -89 130 -186 180 -372 189 -60 4 -115 10 -121 15 -7 5
-14 22 -17 38 -11 54 -62 113 -172 198 -22 17 -57 36 -79 41 -42 12 -116 59
-116 74 0 13 60 37 92 38 21 0 25 -4 21 -20z m690 -287 c15 -24 -12 -13 -28
11 -13 20 -14 28 -3 52 l13 28 5 -39 c3 -22 9 -46 13 -52z m-1047 -310 c4 -27
3 -43 -4 -43 -14 0 -22 25 -22 68 0 47 17 31 26 -25z m-3696 -158 c0 -8 -6
-15 -14 -15 -20 0 -29 17 -14 23 22 9 28 7 28 -8z m4604 -181 c22 -23 26 -35
26 -86 0 -64 -23 -128 -46 -128 -8 0 -14 3 -14 7 0 4 -7 51 -16 105 -9 53 -14
104 -11 113 9 22 31 18 61 -11z m-232 -21 c29 -33 50 -85 44 -108 -7 -28 -61
-51 -73 -31 -5 7 -16 15 -26 19 -16 6 -56 78 -57 103 0 12 45 31 76 33 11 1
28 -7 36 -16z m-4981 -283 c-23 -20 -41 -26 -41 -14 0 11 34 33 50 33 10 0 8
-6 -9 -19z m-51 -39 c-8 -5 -19 -10 -25 -12 -5 -1 -15 -9 -22 -18 -6 -9 -15
-13 -19 -9 -10 11 14 36 39 41 37 7 43 7 27 -2z m75 -21 c-3 -5 -12 -10 -18
-10 -7 0 -6 4 3 10 19 12 23 12 15 0z m-170 -48 c-3 -3 -11 0 -18 7 -9 10 -8
11 6 5 10 -3 15 -9 12 -12z m120 8 c-3 -5 -11 -10 -16 -10 -6 0 -7 5 -4 10 3
6 11 10 16 10 6 0 7 -4 4 -10z m70 -20 c-3 -5 -11 -10 -16 -10 -6 0 -7 5 -4
10 3 6 11 10 16 10 6 0 7 -4 4 -10z"/>
<path d="M5296 10538 c-24 -13 -4 -28 39 -28 23 0 27 -3 15 -10 -11 -7 -7 -8
15 -4 17 3 55 1 85 -4 30 -6 59 -8 64 -5 12 8 -90 42 -143 49 -25 3 -47 7 -51
9 -3 2 -14 -1 -24 -7z"/>
<path d="M5111 10526 c2 -2 31 -6 64 -9 39 -4 51 -3 35 2 -25 9 -107 15 -99 7z"/>
<path d="M5530 10490 c0 -5 5 -10 11 -10 5 0 7 5 4 10 -3 6 -8 10 -11 10 -2 0
-4 -4 -4 -10z"/>
<path d="M5846 10298 c3 -5 10 -6 15 -3 13 9 11 12 -6 12 -8 0 -12 -4 -9 -9z"/>
<path d="M5345 10220 c3 -5 8 -10 11 -10 2 0 4 5 4 10 0 6 -5 10 -11 10 -5 0
-7 -4 -4 -10z"/>
<path d="M5695 9540 c3 -5 8 -10 11 -10 2 0 4 5 4 10 0 6 -5 10 -11 10 -5 0
-7 -4 -4 -10z"/>
<path d="M4506 9301 c-3 -5 3 -16 13 -25 15 -14 20 -14 24 -3 6 15 -29 41 -37
28z"/>
<path d="M4487 9273 c-12 -11 -8 -23 8 -23 8 0 15 7 15 15 0 16 -12 20 -23 8z"/>
<path d="M8378 8933 c7 -3 16 -2 19 1 4 3 -2 6 -13 5 -11 0 -14 -3 -6 -6z"/>
<path d="M5635 8960 c3 -5 8 -10 11 -10 2 0 4 5 4 10 0 6 -5 10 -11 10 -5 0
-7 -4 -4 -10z"/>
<path d="M3205 6430 c3 -5 11 -10 16 -10 6 0 7 5 4 10 -3 6 -11 10 -16 10 -6
0 -7 -4 -4 -10z"/>
<path d="M3287 6409 c7 -7 15 -10 18 -7 3 3 -2 9 -12 12 -14 6 -15 5 -6 -5z"/>
<path d="M3436 6294 c-9 -24 -7 -28 9 -14 17 14 20 30 6 30 -5 0 -12 -7 -15
-16z"/>
<path d="M3390 6280 c0 -19 3 -21 12 -12 9 9 9 15 0 24 -9 9 -12 7 -12 -12z"/>
<path d="M4670 5400 c0 -5 4 -10 9 -10 6 0 13 5 16 10 3 6 -1 10 -9 10 -9 0
-16 -4 -16 -10z"/>
<path d="M4468 5373 c7 -3 16 -2 19 1 4 3 -2 6 -13 5 -11 0 -14 -3 -6 -6z"/>
<path d="M4461 5241 c-10 -7 -10 -10 -1 -16 6 -4 16 -3 22 3 13 13 -4 23 -21
13z"/>
<path d="M3395 5481 c-3 -12 -3 -41 1 -67 7 -46 7 -46 26 -26 17 16 18 26 11
62 -9 48 -28 63 -38 31z"/>
<path d="M2870 5233 c0 -12 5 -25 10 -28 13 -8 13 15 0 35 -8 12 -10 11 -10
-7z"/>
<path d="M5130 4870 c0 -5 5 -10 10 -10 6 0 10 5 10 10 0 6 -4 10 -10 10 -5 0
-10 -4 -10 -10z"/>
<path d="M7140 3780 c0 -5 5 -10 10 -10 6 0 10 5 10 10 0 6 -4 10 -10 10 -5 0
-10 -4 -10 -10z"/>
<path d="M2415 4889 c-10 -15 3 -25 16 -12 7 7 7 13 1 17 -6 3 -14 1 -17 -5z"/>
<path d="M2410 4830 c0 -5 7 -10 15 -10 8 0 15 5 15 10 0 6 -7 10 -15 10 -8 0
-15 -4 -15 -10z"/>
<path d="M4028 4763 c6 -2 18 -2 25 0 6 3 1 5 -13 5 -14 0 -19 -2 -12 -5z"/>
<path d="M1788 4033 c6 -2 18 -2 25 0 6 3 1 5 -13 5 -14 0 -19 -2 -12 -5z"/>
<path d="M3906 3981 c-4 -7 -5 -15 -2 -18 9 -9 19 4 14 18 -4 11 -6 11 -12 0z"/>
<path d="M3490 2850 c0 -5 7 -10 15 -10 8 0 15 5 15 10 0 6 -7 10 -15 10 -8 0
-15 -4 -15 -10z"/>
<path d="M7100 1295 c-7 -8 -8 -15 -2 -15 5 0 15 7 22 15 7 8 8 15 2 15 -5 0
-15 -7 -22 -15z"/>
<path d="M620 12780 c0 -24 25 -27 34 -4 9 23 8 24 -14 24 -13 0 -20 -7 -20
-20z"/>
<path d="M1530 12793 c0 -14 14 -28 43 -42 15 -8 27 -18 27 -23 0 -4 11 -8 24
-8 13 0 40 -7 61 -16 46 -19 85 -15 99 11 6 11 21 35 34 53 l23 32 -155 0
c-86 0 -156 -3 -156 -7z"/>
<path d="M395 12718 c-33 -29 -47 -118 -22 -146 8 -9 17 -35 18 -57 2 -23 12
-52 25 -67 12 -15 24 -32 26 -38 4 -12 125 -33 160 -28 20 3 22 8 19 51 -2 36
1 48 14 53 12 5 14 14 9 38 -8 38 -14 45 -44 51 -54 10 -107 65 -117 120 -2
11 -5 26 -8 33 -7 20 -52 14 -80 -10z"/>
<path d="M1990 12682 c0 -12 40 -33 50 -27 22 14 9 35 -20 35 -16 0 -30 -3
-30 -8z"/>
<path d="M840 12376 c0 -8 4 -26 10 -40 9 -25 10 -26 30 -9 24 21 26 49 4 57
-26 10 -44 7 -44 -8z"/>
<path d="M2046 11561 c-10 -16 6 -42 21 -37 8 3 17 6 19 6 12 0 2 29 -12 34
-20 8 -22 8 -28 -3z"/>
<path d="M0 10955 c0 -134 0 -135 23 -135 38 0 76 23 92 57 9 18 20 35 25 38
6 3 10 21 10 38 0 28 -6 35 -46 57 -26 13 -56 37 -67 52 -11 15 -24 28 -29 28
-4 0 -8 -61 -8 -135z"/>
<path d="M1893 10507 c4 -14 45 -19 52 -7 3 6 3 10 -2 11 -4 0 -18 2 -31 3
-12 2 -21 -2 -19 -7z"/>
<path d="M1985 10410 c-3 -5 3 -10 14 -10 12 0 21 5 21 10 0 6 -6 10 -14 10
-8 0 -18 -4 -21 -10z"/>
<path d="M2168 10243 c7 -3 16 -2 19 1 4 3 -2 6 -13 5 -11 0 -14 -3 -6 -6z"/>
<path d="M2019 9847 c-9 -7 -22 -28 -29 -49 -12 -32 -11 -39 6 -64 46 -65 51
-78 43 -113 -8 -34 -23 -51 -46 -51 -27 0 -11 -20 35 -46 53 -30 92 -77 92
-112 0 -30 65 -92 95 -92 14 0 25 -4 25 -9 0 -5 9 -11 19 -14 12 -3 21 -15 23
-33 2 -25 8 -29 36 -32 17 -2 32 1 32 7 0 12 -20 25 -40 26 -8 0 -14 6 -12 14
2 7 -4 21 -12 30 -18 21 -18 71 0 71 8 0 14 10 14 23 0 16 9 28 25 35 32 15
33 55 4 80 -50 41 -69 68 -69 99 0 17 -4 35 -10 38 -5 3 -10 -3 -10 -13 0 -11
-7 -23 -16 -26 -9 -4 -14 -9 -11 -13 4 -3 -4 -14 -17 -24 -22 -17 -27 -18 -58
-4 -46 19 -64 41 -49 59 17 20 87 29 111 14 10 -7 22 -10 25 -7 8 8 -20 70
-42 94 -10 11 -35 44 -57 73 -40 55 -71 66 -107 39z"/>
<path d="M1790 9730 c0 -5 5 -10 11 -10 5 0 7 5 4 10 -3 6 -8 10 -11 10 -2 0
-4 -4 -4 -10z"/>
<path d="M3278 8589 c-24 -13 -23 -26 2 -34 13 -4 32 0 48 11 25 16 25 18 7
25 -27 10 -37 10 -57 -2z"/>
<path d="M3265 8524 c111 -82 132 -94 160 -93 27 0 28 1 11 12 -10 7 -39 27
-64 46 -41 30 -91 52 -117 51 -5 -1 -1 -8 10 -16z"/>
<path d="M2395 8520 c28 -12 37 -12 30 0 -3 6 -16 10 -28 9 -21 0 -21 -1 -2
-9z"/>
<path d="M2310 8491 c0 -5 6 -14 14 -20 7 -6 31 -41 52 -77 36 -61 90 -121
101 -110 5 5 -125 197 -141 208 -15 10 -26 10 -26 -1z"/>
<path d="M2497 8408 c17 -32 18 -32 21 -9 2 13 -2 28 -10 32 -25 16 -28 9 -11
-23z"/>
<path d="M3472 8383 c12 -14 72 -18 64 -4 -3 5 -21 11 -40 13 -28 3 -33 1 -24
-9z"/>
<path d="M2525 8300 c-3 -5 -1 -18 4 -27 9 -16 10 -14 11 10 0 28 -5 34 -15
17z"/>
<path d="M6020 8210 c0 -5 9 -14 20 -20 15 -8 20 -23 23 -78 l3 -67 2 68 c1
38 -3 77 -8 88 -11 20 -40 27 -40 9z"/>
<path d="M2086 8132 c-4 -8 54 -46 168 -110 l40 -23 -26 28 c-14 15 -33 41
-43 56 -14 21 -24 27 -40 23 -12 -3 -35 3 -53 14 -37 23 -39 23 -46 12z"/>
<path d="M2260 8103 c0 -5 9 -24 21 -43 21 -36 187 -200 201 -200 8 0 -18 48
-32 60 -3 3 -27 32 -54 65 -26 33 -66 75 -88 93 -43 34 -48 36 -48 25z"/>
<path d="M2582 8095 c0 -11 4 -33 8 -50 l8 -30 0 30 c0 17 -3 39 -8 50 l-9 20
1 -20z"/>
<path d="M2826 8063 c-6 -15 -8 -15 -17 -3 -8 12 -9 11 -7 -5 1 -11 -2 -27 -7
-35 -11 -17 -14 -27 -21 -72 -10 -62 -13 -64 -40 -33 -13 17 -36 51 -49 78
-26 49 -52 65 -40 25 16 -53 90 -213 107 -230 10 -10 18 -25 18 -33 0 -29 -29
-14 -52 27 -13 22 -32 46 -43 52 -11 6 -23 16 -28 21 -4 6 -7 -21 -6 -60 2
-114 49 -297 69 -265 5 8 10 -10 13 -46 2 -32 10 -87 17 -121 9 -47 9 -71 1
-94 -6 -18 -11 -45 -11 -61 0 -16 -7 -52 -16 -79 -24 -72 -52 -49 389 -318 59
-36 127 -78 150 -93 75 -48 116 -68 130 -62 8 3 17 -1 20 -9 3 -8 27 -18 54
-22 26 -4 56 -11 65 -16 19 -10 48 -2 48 13 0 6 -6 8 -13 5 -9 -3 -20 12 -33
45 -21 55 -51 82 -79 71 -14 -5 -17 -3 -12 10 11 28 -17 20 -40 -12 -12 -15
-31 -31 -42 -34 -18 -4 -19 -1 -14 24 3 18 1 29 -6 29 -6 0 0 17 14 38 16 25
22 45 18 60 -3 13 -9 19 -12 13 -4 -6 -22 -12 -41 -13 -30 -3 -34 0 -42 28
-17 67 -51 67 -74 1 l-12 -32 -6 30 c-4 17 -16 48 -26 70 -10 22 -21 55 -25
73 -6 30 -14 36 -42 33 -18 -3 -73 40 -67 51 4 5 -3 18 -15 29 -12 11 -21 29
-21 39 0 11 -4 20 -10 20 -5 0 -10 6 -10 14 0 7 -11 25 -25 40 -13 14 -21 26
-17 26 4 1 -4 7 -18 14 -14 8 -29 12 -33 9 -11 -6 -57 36 -57 53 0 6 -7 17
-15 24 -9 7 -13 21 -10 31 4 11 2 19 -3 19 -10 0 -9 -4 -17 110 -4 56 -2 102
7 135 12 45 16 50 38 47 85 -10 111 -12 162 -15 31 -1 60 -6 64 -10 4 -4 17
-7 28 -6 12 0 16 3 9 6 -7 2 -15 20 -19 38 -7 37 -33 69 -35 44 -1 -8 -1 -18
0 -22 1 -5 -3 -7 -10 -5 -6 2 -17 21 -24 42 -19 54 -31 64 -52 43 -13 -13 -14
-19 -5 -29 15 -15 16 -48 2 -48 -5 0 -10 6 -10 13 0 8 -11 36 -25 63 -14 27
-32 91 -41 144 -9 52 -18 96 -19 98 -1 2 -6 -5 -9 -15z m-130 -399 c6 -66 -10
-58 -20 11 -4 22 -9 49 -12 60 -6 18 -5 19 10 4 11 -10 19 -38 22 -75z"/>
<path d="M5688 8004 c-5 -4 -8 -32 -8 -63 0 -39 3 -52 11 -44 5 5 9 34 7 62
-2 29 -6 49 -10 45z"/>
<path d="M6051 7964 c0 -11 3 -14 6 -6 3 7 2 16 -1 19 -3 4 -6 -2 -5 -13z"/>
<path d="M6190 7903 c0 -18 107 -139 116 -130 7 7 -57 117 -68 117 -6 0 -20 7
-30 17 -17 15 -18 15 -18 -4z"/>
<path d="M1910 7901 c0 -13 41 -41 60 -41 11 1 10 4 -5 16 -34 26 -55 36 -55
25z"/>
<path d="M6040 7887 c0 -7 32 -44 70 -81 50 -49 70 -63 70 -50 0 11 -16 39
-35 62 -19 24 -37 52 -40 63 -7 22 -65 28 -65 6z"/>
<path d="M2510 7860 c0 -19 21 -54 44 -72 35 -29 37 -21 8 29 -27 45 -52 66
-52 43z"/>
<path d="M5531 7838 c-1 -20 6 -43 14 -51 8 -8 12 -17 9 -20 -8 -8 47 -86 90
-126 42 -41 45 -31 16 54 -11 32 -20 69 -20 82 0 14 -4 21 -10 18 -5 -3 -10 1
-10 9 0 20 -14 20 -30 1 -22 -26 -38 -17 -48 28 l-10 42 -1 -37z"/>
<path d="M6340 7821 c0 -6 12 -35 26 -63 14 -28 34 -87 45 -132 l19 -81 -3 80
c-3 62 -10 91 -30 131 -26 52 -57 87 -57 65z"/>
<path d="M3106 7738 c-8 -32 -7 -48 2 -48 4 0 9 16 10 35 3 40 -3 46 -12 13z"/>
<path d="M5250 7739 c0 -5 5 -7 10 -4 6 3 10 8 10 11 0 2 -4 4 -10 4 -5 0 -10
-5 -10 -11z"/>
<path d="M4017 7680 c9 -16 21 -30 26 -30 4 0 0 14 -10 30 -9 17 -21 30 -26
30 -4 0 0 -13 10 -30z"/>
<path d="M5730 7625 c1 -33 42 -219 59 -265 l21 -55 -4 55 c-6 76 -45 242 -62
260 -8 8 -14 10 -14 5z"/>
<path d="M6862 7618 c-14 -14 -16 -38 -3 -38 8 0 23 41 17 47 -1 1 -8 -3 -14
-9z"/>
<path d="M4011 7554 c0 -11 3 -14 6 -6 3 7 2 16 -1 19 -3 4 -6 -2 -5 -13z"/>
<path d="M3965 7447 c-13 -66 28 -257 56 -257 4 0 3 15 -2 34 -5 18 -11 58
-13 89 -2 30 -7 60 -11 67 -4 6 -10 32 -14 58 l-8 47 -8 -38z"/>
<path d="M5720 7306 c0 -9 5 -16 10 -16 6 0 10 4 10 9 0 6 -4 13 -10 16 -5 3
-10 -1 -10 -9z"/>
<path d="M5810 7280 c0 -5 5 -10 11 -10 5 0 7 5 4 10 -3 6 -8 10 -11 10 -2 0
-4 -4 -4 -10z"/>
<path d="M5730 7261 c0 -7 19 -31 43 -54 62 -59 147 -129 147 -121 0 26 -121
154 -146 154 -4 0 -16 7 -26 17 -12 11 -18 12 -18 4z"/>
<path d="M5190 7244 c0 -6 7 -19 15 -30 8 -10 14 -14 14 -9 0 6 -6 19 -14 29
-8 11 -15 15 -15 10z"/>
<path d="M4064 7224 c5 -10 13 -34 18 -53 6 -22 13 -30 19 -24 12 12 -11 76
-32 88 -9 6 -10 3 -5 -11z"/>
<path d="M8295 7210 c-50 -25 -145 -100 -145 -115 0 -7 33 7 62 27 14 10 31
18 38 18 6 0 42 18 79 40 51 29 83 41 127 45 86 8 79 15 -17 15 -73 0 -92 -5
-144 -30z"/>
<path d="M0 7213 c0 -13 5 -23 10 -23 13 0 13 11 0 30 -8 12 -10 11 -10 -7z"/>
<path d="M41 7189 c-7 -12 -19 -18 -27 -15 -12 4 -14 -12 -14 -99 0 -58 2
-105 3 -105 2 0 19 15 38 33 20 17 45 39 58 47 15 10 21 22 18 38 -3 15 3 28
16 37 25 17 19 25 -19 29 -15 2 -30 8 -32 15 -2 6 -11 11 -20 11 -13 0 -14 2
-3 9 7 5 9 11 4 14 -5 3 -15 -3 -22 -14z m39 -51 c0 -13 -23 -5 -28 10 -2 7 2
10 12 6 9 -3 16 -11 16 -16z"/>
<path d="M1720 7202 c0 -7 10 -35 23 -64 13 -29 27 -66 31 -81 7 -30 66 -129
66 -112 0 18 -37 129 -62 185 -24 53 -58 95 -58 72z"/>
<path d="M4180 7150 c0 -20 38 -66 47 -57 7 7 -27 77 -38 77 -5 0 -9 -9 -9
-20z"/>
<path d="M4140 7125 c7 -9 15 -13 17 -11 7 7 -7 26 -19 26 -6 0 -6 -6 2 -15z"/>
<path d="M8190 7029 c0 -5 5 -7 10 -4 6 3 10 8 10 11 0 2 -4 4 -10 4 -5 0 -10
-5 -10 -11z"/>
<path d="M8326 7019 c-17 -16 -31 -19 -85 -17 -37 2 -69 7 -73 13 -5 6 -8 3
-8 -7 0 -10 -9 -18 -22 -20 -31 -4 -36 -38 -8 -45 13 -4 19 -11 16 -20 -3 -8
-6 -21 -6 -28 0 -7 -15 -22 -34 -33 -33 -19 -34 -22 -32 -81 1 -33 7 -66 14
-73 6 -6 12 -17 12 -22 0 -6 14 -29 30 -50 17 -22 30 -45 30 -52 0 -16 70 -31
79 -17 12 19 51 22 64 5 13 -19 73 -30 62 -13 -3 6 -15 11 -26 11 -10 0 -19 7
-19 15 0 8 5 15 10 15 19 0 10 22 -25 63 -20 23 -33 47 -31 53 6 16 -16 74
-27 74 -5 0 1 9 14 19 18 14 29 17 48 10 13 -5 25 -8 27 -7 2 2 9 60 13 111 1
5 5 6 10 3 4 -3 17 4 27 15 10 11 23 18 29 15 18 -6 31 6 38 35 6 25 4 27 -31
34 -20 3 -46 8 -57 10 -11 3 -29 -4 -39 -16z"/>
<path d="M8000 6943 c0 -12 -4 -25 -10 -28 -5 -3 -10 -12 -10 -18 0 -7 6 -4
14 5 9 12 16 14 23 7 12 -12 33 -4 33 12 0 5 -8 13 -17 16 -10 4 -21 11 -25
17 -5 6 -8 2 -8 -11z"/>
<path d="M1310 6864 c0 -7 48 -54 55 -54 10 0 -26 48 -41 54 -8 3 -14 3 -14 0z"/>
<path d="M3597 6774 c-11 -11 -8 -92 3 -99 6 -3 10 -1 10 5 0 7 9 25 21 41 16
24 17 29 5 29 -8 0 -19 7 -24 15 -4 9 -11 12 -15 9z"/>
<path d="M6427 6676 c-7 -18 1 -26 25 -26 11 0 18 7 18 20 0 23 -35 28 -43 6z"/>
<path d="M6575 6650 c-7 -12 2 -12 30 0 19 8 19 9 -2 9 -12 1 -25 -3 -28 -9z"/>
<path d="M6522 6642 c-9 -6 -6 -14 13 -32 28 -26 42 -22 26 8 -6 11 -7 22 -4
26 9 9 -20 7 -35 -2z"/>
<path d="M3608 6618 c-54 -23 -62 -38 -20 -38 15 0 40 -7 56 -15 15 -8 38 -15
50 -15 11 0 30 -7 40 -15 11 -8 28 -15 39 -15 10 0 32 -9 48 -20 l28 -21 41
39 c22 22 40 45 40 51 0 20 -29 12 -46 -13 -19 -30 -39 -24 -60 16 -12 24 -20
29 -39 24 -15 -4 -25 -1 -29 9 -3 10 -19 15 -46 15 -22 0 -40 5 -40 10 0 14
-8 12 -62 -12z"/>
<path d="M1629 6593 c0 -16 -1 -49 -2 -76 -2 -52 -2 -53 18 -33 15 15 23 105
11 124 -13 21 -26 13 -27 -15z"/>
<path d="M6447 6614 c-3 -4 -2 -15 4 -26 6 -11 13 -17 16 -14 3 2 14 -4 26
-15 31 -29 40 -23 15 11 -12 17 -27 30 -32 30 -6 0 -4 5 4 10 12 8 11 10 -6
10 -11 0 -24 -3 -27 -6z"/>
<path d="M6628 6582 c9 -10 19 -14 21 -9 2 5 -3 13 -10 18 -24 15 -30 10 -11
-9z"/>
<path d="M1507 6513 c-3 -5 0 -19 5 -33 6 -14 12 -39 13 -55 6 -49 22 -80 42
-82 16 -1 19 5 19 48 0 42 -3 49 -19 49 -16 0 -17 2 -7 15 11 13 11 20 0 40
-13 24 -44 34 -53 18z m63 -93 c0 -5 -2 -10 -4 -10 -3 0 -8 5 -11 10 -3 6 -1
10 4 10 6 0 11 -4 11 -10z"/>
<path d="M6093 6513 c-8 -3 -1 -17 18 -38 17 -18 37 -41 45 -51 9 -11 13 -13
9 -6 -10 20 4 35 21 21 9 -7 14 -8 14 -1 0 6 -8 13 -17 16 -10 3 -32 19 -48
34 -17 16 -36 27 -42 25z"/>
<path d="M6450 6500 c0 -9 88 -70 102 -70 18 0 6 16 -25 34 -63 38 -77 45 -77
36z"/>
<path d="M6630 6480 c-9 -6 -10 -10 -3 -10 6 0 15 5 18 10 8 12 4 12 -15 0z"/>
<path d="M3916 6472 c-3 -6 4 -12 17 -16 33 -9 47 -7 47 5 0 6 -7 8 -16 5 -9
-4 -22 -2 -29 4 -8 7 -16 7 -19 2z"/>
<path d="M4192 6390 c-49 -12 -64 -30 -24 -30 17 0 51 -11 76 -25 53 -29 78
-31 101 -8 16 16 14 18 -35 34 -28 9 -57 22 -63 28 -6 6 -13 11 -16 10 -4 -1
-21 -5 -39 -9z"/>
<path d="M5559 6400 c-8 -33 -8 -70 0 -70 15 0 23 38 12 57 -6 10 -11 16 -12
13z"/>
<path d="M4375 6340 c-3 -5 -1 -10 4 -10 6 0 11 5 11 10 0 6 -2 10 -4 10 -3 0
-8 -4 -11 -10z"/>
<path d="M4415 6270 c3 -5 10 -10 16 -10 5 0 9 5 9 10 0 6 -7 10 -16 10 -8 0
-12 -4 -9 -10z"/>
<path d="M4655 6250 c-3 -5 -1 -10 4 -10 6 0 11 5 11 10 0 6 -2 10 -4 10 -3 0
-8 -4 -11 -10z"/>
<path d="M6145 6191 c-3 -5 -1 -12 5 -16 5 -3 10 1 10 9 0 18 -6 21 -15 7z"/>
<path d="M4020 6181 c0 -6 4 -13 10 -16 6 -3 7 1 4 9 -7 18 -14 21 -14 7z"/>
<path d="M4760 6106 c0 -21 21 -31 31 -15 6 11 9 11 9 1 0 -7 11 -17 24 -24
20 -8 28 -8 40 5 15 14 13 17 -16 31 -40 20 -88 21 -88 2z"/>
<path d="M4070 6083 c0 -13 5 -23 10 -23 13 0 13 11 0 30 -8 12 -10 11 -10 -7z"/>
<path d="M4121 5906 l-1 -123 27 -11 c36 -13 65 -12 54 2 -4 6 -14 58 -20 116
-13 110 -23 140 -45 140 -11 0 -14 -28 -15 -124z"/>
<path d="M4298 5753 c7 -3 16 -2 19 1 4 3 -2 6 -13 5 -11 0 -14 -3 -6 -6z"/>
<path d="M4580 5687 c0 -8 7 -18 16 -21 11 -4 14 -1 12 11 -4 21 -28 30 -28
10z"/>
<path d="M4741 5683 c-18 -19 -9 -26 14 -9 10 7 14 15 9 18 -5 3 -15 -1 -23
-9z"/>
<path d="M1468 4005 c-16 -13 -28 -28 -28 -34 0 -5 -6 -11 -12 -14 -7 -2 -10
-7 -7 -11 8 -8 82 61 77 73 -2 5 -15 -1 -30 -14z"/>
<path d="M1387 3873 c-2 -5 -2 -26 0 -48 2 -22 4 -55 4 -72 0 -23 5 -33 15
-33 12 0 15 -10 12 -42 -2 -40 -1 -43 22 -43 25 0 25 1 27 95 1 79 -2 98 -16
111 -25 24 -59 40 -64 32z"/>
<path d="M960 3770 c0 -5 5 -10 11 -10 5 0 7 5 4 10 -3 6 -8 10 -11 10 -2 0
-4 -4 -4 -10z"/>
<path d="M960 3740 c0 -5 5 -10 11 -10 5 0 7 5 4 10 -3 6 -8 10 -11 10 -2 0
-4 -4 -4 -10z"/>
<path d="M1599 3708 c-33 -27 -57 -84 -53 -128 3 -51 10 -59 49 -62 17 -1 34
-7 38 -13 6 -6 7 -3 4 7 -4 11 2 18 19 22 23 6 31 34 25 84 -1 6 3 12 9 12 6
0 9 4 6 9 -3 5 1 11 9 15 8 3 15 13 14 23 0 11 -3 13 -6 6 -8 -20 -21 -15 -25
10 -2 17 -10 23 -38 25 -19 2 -42 -3 -51 -10z"/>
<path d="M954 3660 c-16 -6 -20 -15 -17 -33 3 -14 -2 -30 -11 -40 -9 -8 -16
-20 -16 -25 0 -11 72 -26 110 -23 14 1 33 -4 42 -11 24 -18 88 -146 88 -175 0
-41 53 -43 98 -5 28 25 28 33 -3 62 -14 13 -25 31 -25 41 0 9 -11 24 -24 32
-13 9 -29 32 -36 52 -6 19 -16 32 -21 29 -6 -3 -9 9 -7 32 4 44 -16 57 -33 21
-18 -40 -44 -40 -79 -1 -16 19 -30 39 -30 44 0 12 -8 12 -36 0z"/>
<path d="M1046 3285 c-7 -20 8 -62 18 -47 4 7 16 12 27 12 11 0 23 10 28 23
11 27 6 34 -13 18 -10 -8 -16 -9 -21 -1 -9 15 -32 12 -39 -5z"/>
<path d="M266 3124 c-7 -19 10 -44 31 -44 19 0 28 27 13 45 -16 20 -36 19 -44
-1z"/>
<path d="M603 3052 c-17 -2 -21 -8 -17 -29 3 -14 0 -31 -6 -38 -8 -10 -6 -18
10 -33 12 -11 18 -25 14 -35 -6 -18 4 -22 21 -9 25 18 58 141 38 143 -4 0 -15
2 -23 3 -8 1 -25 0 -37 -2z"/>
<path d="M473 2968 c-10 -15 -28 -54 -37 -81 -9 -28 11 -67 34 -67 11 0 23 7
27 16 6 16 51 39 68 35 6 -2 0 8 -12 21 -13 14 -23 30 -23 36 0 7 -4 12 -9 12
-5 0 -11 9 -14 20 -6 23 -20 26 -34 8z"/>
<path d="M13 2873 c-8 -3 -13 -25 -13 -59 l0 -54 48 0 c62 0 93 27 73 64 -7
12 -30 30 -50 39 -40 18 -40 18 -58 10z"/>
<path d="M4341 2527 c-25 -7 -47 -18 -49 -26 -3 -9 0 -11 7 -6 7 4 33 10 58
13 26 4 48 13 51 20 4 14 -8 14 -67 -1z"/>
</g>
</svg>
